<svg preserveAspectRatio="none" width="100%" height="100%" overflow="visible" style="display: block;" viewBox="0 0 136.053 135.634" fill="none" xmlns="http://www.w3.org/2000/svg">
<g id="Camada_1" clip-path="url(#clip0_0_4)">
<path id="Vector" d="M42.2358 41.0749C41.6308 41.5818 40.9878 42.0286 40.3556 42.4864C39.0858 43.3965 37.8214 44.3175 36.4536 45.0587C35.7723 45.4348 35.0693 45.7781 34.3554 46.0996C33.6415 46.4266 32.9167 46.7318 32.1809 47.0097C31.0528 47.4348 29.8975 47.8217 28.6822 48.0997C28.4206 50.8464 28.0936 53.593 28.0173 56.3397C27.9574 58.2362 27.9737 60.1273 28.0446 62.0238C28.0991 63.468 28.1972 64.9122 28.3116 66.3564C28.5242 66.1275 28.7367 65.9041 28.9547 65.6861C29.5269 65.1247 30.1209 64.607 30.7422 64.1165C31.358 63.6315 31.9957 63.1792 32.6496 62.7486C33.2981 62.3181 33.9794 61.9366 34.7096 61.6423C36.1647 61.0483 37.8051 60.7486 39.1948 60.051C40.5954 59.3589 41.8434 58.4106 43.0042 57.3152C43.5873 56.7757 44.1704 56.2253 44.7753 55.7239C45.3803 55.2171 46.0233 54.7702 46.6555 54.3124C47.9253 53.4023 49.1897 52.4813 50.563 51.7401C51.2442 51.3641 51.9472 51.0208 52.6612 50.6992C52.8355 50.6175 53.0099 50.5466 53.1843 50.4703C51.8982 45.6636 50.0998 41.064 47.8381 36.7369C47.8327 36.7369 47.8272 36.7369 47.8218 36.7424C46.4212 37.4345 45.1732 38.3828 44.0124 39.4727C43.4293 40.0122 42.8461 40.5627 42.2412 41.064" fill="#F1D09F"/>
<path id="Vector_2" d="M32.5732 71.6807C33.2 71.2066 33.8376 70.7597 34.4916 70.3401C35.7995 69.4954 37.211 68.825 38.6225 68.1493C39.3255 67.8114 40.0231 67.4626 40.7588 67.1738C41.4891 66.8795 42.252 66.6342 43.0041 66.3781C44.5191 65.8822 45.9524 65.2391 47.2277 64.3453C48.5138 63.457 49.5547 62.1654 50.7755 61.1681C51.3804 60.6667 52.0452 60.2526 52.7319 59.8874C53.4186 59.5223 54.1216 59.1789 54.8464 58.8683C54.8519 58.8683 54.8573 58.8683 54.8628 58.8629C54.6393 57.2279 54.3668 55.6148 54.029 54.018C53.533 54.3777 53.0371 54.7319 52.5194 55.0589C51.2114 55.9036 49.7945 56.574 48.3885 57.2552C47.6854 57.5931 46.9879 57.9419 46.2521 58.2307C45.5219 58.525 44.7589 58.7702 44.0068 59.0264C42.4918 59.5223 41.0585 60.1654 39.7833 61.0591C38.4971 61.9474 37.4562 63.239 36.2355 64.2363C35.6306 64.7377 34.9657 65.1519 34.279 65.517C33.5923 65.8822 32.8893 66.2255 32.1645 66.5361C31.4397 66.8468 30.6985 67.1247 29.9301 67.3536C29.4342 67.5007 28.9328 67.6315 28.4151 67.7296C28.5786 69.6207 28.7584 71.5063 28.8729 73.3974C28.9056 73.8606 28.9328 74.3238 28.96 74.7871C29.5323 74.2148 30.1263 73.6808 30.7258 73.1576C31.3252 72.6453 31.9411 72.1494 32.5678 71.6861" fill="#F1D09F"/>
<path id="Vector_3" d="M10.0929 34.9984C10.7033 35.4998 11.281 36.0502 11.8641 36.5898C13.0249 37.6852 14.2729 38.628 15.6735 39.3201C17.0686 40.0231 18.7035 40.3174 20.1586 40.9114C20.8889 41.2003 21.5701 41.5872 22.2186 42.0177C22.8726 42.4428 23.5102 42.8951 24.1261 43.3856C24.7419 43.8707 25.3414 44.3884 25.9136 44.9552C25.919 44.9606 25.9245 44.9661 25.9299 44.9715C25.8155 43.0804 25.7882 41.1948 25.8318 39.3038C25.8318 38.9441 25.8482 38.5844 25.8591 38.2301C24.7637 37.9577 23.7173 37.6034 22.6873 37.2165C21.9516 36.9331 21.2213 36.6334 20.5129 36.3064C19.7989 35.9848 19.0959 35.6361 18.4147 35.2655C17.0468 34.5189 15.7825 33.6033 14.5127 32.6932C13.8805 32.2354 13.2374 31.7885 12.6325 31.2817C12.2456 30.9602 11.8695 30.6223 11.4935 30.2735C10.6379 31.5542 9.82588 32.8621 9.05201 34.1973C9.40625 34.4535 9.74958 34.715 10.0875 34.9984" fill="#F1D09F"/>
<path id="Vector_4" d="M7.64584 45.4892C8.92653 46.3884 10.3544 47.026 11.8694 47.5219C12.6215 47.7781 13.3844 48.0233 14.1147 48.3176C14.8504 48.6064 15.548 48.9552 16.251 49.2931C17.657 49.9689 19.074 50.6392 20.3819 51.4839C21.0359 51.9036 21.679 52.3504 22.3002 52.8246C22.927 53.2932 23.5428 53.7837 24.1423 54.296C25.0905 55.1135 26.017 55.9745 26.8671 56.9555C26.8671 56.7484 26.8617 56.5467 26.8508 56.3397C26.7636 53.1951 26.3494 50.0506 26.0769 46.9007C25.6845 46.8135 25.3085 46.7099 24.927 46.5955C24.1586 46.3666 23.4174 46.0887 22.6926 45.778C21.9678 45.4728 21.2702 45.1295 20.5781 44.7589C19.8915 44.3938 19.2266 43.985 18.6217 43.4782C17.4009 42.4864 16.36 41.1893 15.0739 40.301C13.7932 39.4018 12.3653 38.7642 10.8503 38.2682C10.0982 38.0121 9.33526 37.7669 8.60499 37.4726C8.22896 37.3254 7.86383 37.1619 7.50414 36.993C6.50684 38.9222 5.60763 40.9059 4.80106 42.9387C5.73297 43.8052 6.60493 44.7698 7.62949 45.4783" fill="#F1D09F"/>
<path id="Vector_5" d="M10.0928 93.398C10.7032 93.8994 11.2809 94.4498 11.864 94.9894C13.0248 96.0848 14.2728 97.0276 15.6734 97.7252C17.0685 98.4282 18.7034 98.7225 20.1585 99.3165C20.8888 99.6053 21.57 99.9923 22.2185 100.417C22.8725 100.842 23.5101 101.295 24.126 101.785C24.7418 102.27 25.3413 102.788 25.9135 103.355C25.9952 103.437 26.077 103.518 26.1533 103.6C26.1042 103.001 26.0552 102.401 26.0116 101.802C25.859 99.6598 25.7445 97.5126 25.6573 95.3709C24.6328 95.1038 23.6518 94.7714 22.6927 94.4117C21.957 94.1283 21.2267 93.8286 20.5182 93.5016C19.8043 93.1801 19.1013 92.8313 18.4201 92.4607C17.0522 91.7141 15.7878 90.7985 14.518 89.8829C13.8804 89.4252 13.2428 88.9783 12.6379 88.4715C12.0275 87.9701 11.4498 87.4197 10.8667 86.8801C9.70589 85.7847 8.45789 84.8365 7.0573 84.1498C5.66216 83.4468 4.02724 83.1525 2.57215 82.5585C2.18522 82.4059 1.80918 82.2206 1.4495 82.0244C1.93998 84.3514 2.5449 86.6349 3.26972 88.8747C3.62395 89.0491 3.97274 89.2344 4.31607 89.4197C5.68396 90.1663 6.94831 91.0819 8.2181 91.9975C8.85573 92.4552 9.49335 92.9021 10.0983 93.4089" fill="#F1D09F"/>
<path id="Vector_6" d="M4.31089 60.803C5.67878 61.5442 6.94857 62.4652 8.21292 63.3753C8.85054 63.8331 9.48816 64.28 10.0931 64.7868C10.7035 65.2882 11.2811 65.8386 11.8643 66.3782C13.0251 67.4736 14.2731 68.4218 15.6736 69.1085C17.0688 69.8115 18.7037 70.1058 20.1588 70.6998C20.8945 70.9887 21.5703 71.3756 22.2188 71.8061C22.8728 72.2312 23.5104 72.6835 24.1262 73.174C24.7421 73.659 25.3361 74.1713 25.9083 74.7326C25.9301 74.2858 25.9573 73.8389 25.99 73.392C26.1045 71.4955 26.2843 69.6044 26.4478 67.7079C26.6059 65.8114 26.7585 63.9203 26.8239 62.0238C26.8729 60.6777 26.8947 59.3262 26.8838 57.9801C25.4069 57.7021 24.0336 57.2498 22.6875 56.743C21.9463 56.4596 21.2215 56.1598 20.513 55.8329C19.7991 55.5113 19.1015 55.1625 18.4149 54.792C17.047 54.0453 15.7826 53.1298 14.5128 52.2142C13.8807 51.7564 13.2376 51.3096 12.6327 50.8027C12.0278 50.3014 11.4446 49.7509 10.8615 49.2114C9.70071 48.116 8.45271 47.1677 7.05212 46.4756C6.07116 45.9851 4.97576 45.6909 3.90216 45.353C2.34353 49.7346 1.22632 54.3233 0.594151 59.0646C1.13913 59.2826 1.67865 59.506 2.20728 59.7512C2.9212 60.0728 3.62422 60.4216 4.30544 60.7921" fill="#F1D09F"/>
<path id="Vector_7" d="M14.115 28.7858C14.8507 29.0746 15.5483 29.4234 16.2513 29.7613C17.6573 30.437 19.0743 31.1074 20.3822 31.9575C21.0362 32.3772 21.6793 32.824 22.3005 33.2982C22.9273 33.7668 23.5431 34.2573 24.1425 34.7696C24.7475 35.2928 25.3415 35.8269 25.9137 36.3991C25.9464 35.4726 25.99 34.5462 26.0391 33.6143C26.1426 31.7232 26.2843 29.8267 26.475 27.9356C26.6712 26.0391 26.9056 24.148 27.2598 22.2515C27.2762 22.1534 27.3743 22.088 27.4724 22.1044C27.5487 22.1207 27.6031 22.1807 27.6195 22.2515C27.9247 23.9028 28.1427 25.5486 28.3225 27.1999C28.5296 26.971 28.7421 26.753 28.9547 26.535C29.5269 25.9737 30.1209 25.456 30.7422 24.9655C31.358 24.475 31.9957 24.0281 32.6496 23.5976C33.2982 23.1671 33.9794 22.7856 34.7096 22.4967C35.5053 22.1752 36.3446 21.9354 37.1784 21.6738C36.4209 20.8673 35.6524 20.0716 34.8568 19.2977C34.6878 19.374 34.5243 19.4558 34.3554 19.5321C33.6415 19.8591 32.9167 20.1642 32.1809 20.4422C30.6986 20.9981 29.1836 21.494 27.5323 21.761C27.4288 21.7774 27.3252 21.7065 27.3089 21.603C27.298 21.5485 27.3143 21.494 27.347 21.4504C28.3716 20.1315 29.5324 19.0361 30.7313 18.0007C31.2109 17.592 31.6959 17.205 32.1918 16.8235C30.764 15.5701 29.2817 14.3711 27.7503 13.2376C22.0335 17.4721 17.0088 22.5621 12.8561 28.3116C13.2812 28.4588 13.7063 28.6059 14.115 28.7749" fill="#F1D09F"/>
<path id="Vector_8" d="M30.7312 101.769C31.3306 101.257 31.9465 100.761 32.5732 100.297C33.1999 99.8233 33.8375 99.3764 34.4915 98.9568C35.7994 98.1121 37.2164 97.4418 38.6224 96.766C39.3254 96.4281 40.023 96.0793 40.7587 95.7905C41.489 95.4962 42.252 95.251 43.004 94.9948C44.5191 94.4989 45.9524 93.8558 47.2276 92.9621C48.5137 92.0737 49.5546 90.7821 50.7754 89.7848C51.2441 89.3979 51.7454 89.06 52.2686 88.7603C53.9908 83.3759 55.0644 77.7082 55.3859 71.8388C55.0752 72.0895 54.7592 72.3293 54.4431 72.569C53.8164 73.0432 53.1787 73.49 52.5248 73.9097C51.2168 74.7544 49.7999 75.4247 48.3938 76.1005C47.6908 76.4384 46.9933 76.7872 46.2575 77.076C45.5273 77.3703 44.7643 77.6155 44.0122 77.8717C42.4972 78.3676 41.0639 79.0107 39.7887 79.9099C38.5025 80.7982 37.4616 82.0898 36.2409 83.0871C35.6359 83.5939 34.9711 84.0026 34.2844 84.3678C33.5977 84.7329 32.8947 85.0762 32.1699 85.3869C31.4505 85.6975 30.7094 85.9755 29.9355 86.2043C29.7393 86.2588 29.5486 86.3188 29.3469 86.3678C29.3687 87.7248 29.3742 89.0818 29.3469 90.4443C29.287 94.2319 29.118 98.0194 28.8455 101.807C28.7965 102.428 28.7474 103.044 28.6984 103.665C29.3469 102.995 30.0281 102.374 30.7203 101.774" fill="#F1D09F"/>
<path id="Vector_9" d="M4.09833 79.9753C5.31908 80.9726 6.36543 82.2642 7.64612 83.1525C8.92137 84.0517 10.3547 84.6893 11.8697 85.1853C12.6218 85.4414 13.3847 85.6867 14.115 85.9809C14.8507 86.2698 15.5483 86.6186 16.2513 86.9564C17.6573 87.6322 19.0743 88.3025 20.3822 89.1473C21.0362 89.5669 21.6793 90.0138 22.3005 90.4879C22.9273 90.9566 23.5431 91.4471 24.1426 91.9593C24.633 92.379 25.1126 92.8149 25.5813 93.2673C25.554 92.319 25.5322 91.3762 25.5159 90.4279C25.4559 86.6404 25.5976 82.8528 25.7339 79.0652C25.7666 78.2532 25.7938 77.4412 25.8211 76.6291C25.5213 76.5529 25.2216 76.4766 24.9328 76.3894C24.1644 76.1605 23.4232 75.8825 22.6984 75.5719C21.9736 75.2667 21.276 74.9234 20.5839 74.5528C19.8972 74.1877 19.2323 73.7735 18.6274 73.2721C17.4066 72.2748 16.3657 70.9832 15.0796 70.0949C13.7989 69.1957 12.3711 68.558 10.856 68.0567C10.104 67.8005 9.341 67.5553 8.61073 67.261C7.87502 66.9722 7.17745 66.6234 6.47443 66.2855C5.06294 65.6097 3.65145 64.9394 2.34351 64.0892C1.68953 63.6696 1.04646 63.2227 0.42519 62.7486C0.354343 62.6996 0.288946 62.6396 0.218099 62.5906C0.0818548 64.4053 0.000108337 66.2255 0.000108337 68.0621C0.000108337 71.4355 0.250797 74.7544 0.730377 77.997C1.20996 78.2205 1.67864 78.4494 2.14186 78.6946C2.82854 79.0597 3.49341 79.4739 4.09833 79.9753Z" fill="#F1D09F"/>
<path id="Vector_10" d="M47.8216 93.9485C46.421 94.6406 45.173 95.5889 44.0122 96.6843C43.4236 97.2238 42.8459 97.7742 42.241 98.2756C41.6361 98.7825 40.9985 99.2293 40.3608 99.6871C39.0911 100.597 37.8267 101.518 36.4534 102.265C35.7722 102.641 35.0691 102.984 34.3552 103.306C33.6413 103.633 32.9165 103.938 32.1808 104.216C31.0145 104.652 29.8265 105.05 28.5676 105.333C28.3332 107.944 28.0444 110.559 27.6193 113.17C27.603 113.268 27.5103 113.339 27.4122 113.322C27.3305 113.312 27.276 113.246 27.2596 113.17C26.84 110.57 26.5512 107.965 26.3168 105.366C25.8481 105.268 25.3904 105.148 24.9435 105.017C24.1751 104.788 23.4339 104.51 22.7145 104.2C21.9897 103.894 21.2921 103.551 20.6 103.18C19.9133 102.815 19.2485 102.407 18.6435 101.9C17.4228 100.908 16.3819 99.6108 15.0958 98.7225C13.8151 97.8233 12.3872 97.1857 10.8722 96.6897C10.1201 96.4336 9.35715 96.1884 8.62689 95.8941C7.89117 95.6052 7.1936 95.2565 6.49058 94.9186C6.09275 94.7278 5.68946 94.5316 5.29708 94.3354C6.46333 97.1148 7.80942 99.7961 9.32446 102.379C10.1365 102.788 10.9921 103.131 11.8804 103.42C12.6325 103.676 13.3954 103.922 14.1257 104.216C14.8614 104.505 15.559 104.853 16.262 105.191C17.668 105.867 19.085 106.537 20.3929 107.388C21.0469 107.807 21.69 108.254 22.3112 108.728C22.938 109.197 23.5538 109.687 24.1533 110.2C25.3522 111.235 26.513 112.331 27.5376 113.649C27.603 113.731 27.5866 113.856 27.5049 113.922C27.4613 113.955 27.4068 113.971 27.3577 113.96C25.7064 113.693 24.186 113.197 22.7091 112.641C21.9734 112.358 21.2431 112.058 20.5346 111.731C19.8207 111.41 19.1177 111.061 18.4365 110.69C17.0686 109.944 15.8042 109.028 14.5344 108.112C13.9023 107.655 14.7688 108.521 14.1638 108.014C13.6843 107.617 15.0467 109.524 14.578 109.093C15.1012 109.884 13.9186 108.26 12.9594 107.894C16.0931 112.162 20.2621 116.843 23.8372 120.086C25.5211 121.612 25.9353 121.524 27.7665 122.881C38.0338 115.273 46.0886 104.903 50.8189 92.8858C49.7998 93.2019 48.7698 93.4907 47.8434 93.954" fill="#F1D09F"/>
<path id="Vector_11" d="M34.2789 26.3606C33.5923 26.7257 32.8892 27.0691 32.1644 27.3797C31.445 27.6903 30.7039 27.9683 29.9355 28.1972C29.4559 28.3389 28.9654 28.4642 28.4586 28.5678C28.6221 30.2517 28.742 31.9357 28.8346 33.6197C28.9382 35.5108 29.0036 37.4073 29.0308 39.3038C29.0744 41.1949 29.0472 43.0914 28.9327 44.9879C28.9055 45.4348 28.8728 45.8871 28.8346 46.334C29.445 45.7127 30.0772 45.135 30.7257 44.5792C31.3252 44.0669 31.941 43.5764 32.5677 43.1077C33.1944 42.6336 33.832 42.1867 34.486 41.7671C35.794 40.9224 37.2109 40.252 38.6169 39.5763C39.32 39.2384 40.023 38.8896 40.7532 38.6008C41.4835 38.3065 42.2465 38.0612 42.9985 37.8051C44.5136 37.3092 45.9469 36.6661 47.2221 35.7669C47.2439 35.756 47.2603 35.7396 47.2766 35.7233C44.8024 31.1673 41.8159 26.9165 38.3989 23.0526C37.6741 23.7338 36.982 24.4695 36.2245 25.0854C35.6196 25.5867 34.9601 26.0009 34.268 26.3661" fill="#F1D09F"/>
<path id="Vector_12" d="M32.6441 81.6048C33.2926 81.1743 33.9738 80.7928 34.7041 80.4985C36.1592 79.9045 37.7996 79.6102 39.1893 78.9071C40.5899 78.215 41.8378 77.2668 42.9986 76.1768C43.5818 75.6373 44.1649 75.0869 44.7698 74.5855C45.3747 74.0787 46.0124 73.6318 46.65 73.174C47.9198 72.2639 49.1841 71.3429 50.5575 70.6017C51.2387 70.2257 51.9417 69.8823 52.6556 69.5608C53.3695 69.2338 54.0944 68.9286 54.8301 68.6507C55.0481 68.5689 55.2661 68.4926 55.4841 68.4109C55.4841 68.2965 55.4895 68.182 55.4895 68.0621C55.4895 66.0348 55.3969 64.0347 55.2225 62.051C54.9391 62.2527 54.6557 62.4489 54.3669 62.6396C53.7183 63.0701 53.0371 63.4516 52.3068 63.7405C50.8518 64.3345 49.2168 64.6288 47.8217 65.3318C46.4211 66.0239 45.1731 66.9722 44.0123 68.0676C43.4237 68.6071 42.8461 69.1575 42.2411 69.6589C41.6362 70.1657 40.9931 70.6126 40.361 71.0704C39.0912 71.9805 37.8268 72.9015 36.4535 73.6427C35.7723 74.0187 35.0692 74.362 34.3553 74.6836C33.6469 75.0106 32.9166 75.3158 32.1809 75.5937C31.1672 75.9752 30.1318 76.324 29.0473 76.5964C29.08 77.4194 29.1072 78.2477 29.1399 79.0706C29.1998 80.7873 29.2652 82.4985 29.3088 84.2152C29.7721 83.7792 30.2517 83.3596 30.7421 82.9727C31.358 82.4876 31.9956 82.0353 32.6495 81.6048" fill="#F1D09F"/>
<path id="Vector_13" d="M56.0017 133.819C55.9254 132.391 56.0453 130.952 56.1652 129.519C56.2251 128.8 56.2687 128.086 56.3886 127.366C56.4976 126.647 56.6665 125.933 56.8191 125.214C57.1461 123.775 57.3042 122.342 57.1625 120.914C57.0317 119.486 56.4322 118.058 56.1815 116.63C56.0453 115.916 56.0235 115.202 56.0453 114.483C56.0671 113.769 56.1216 113.05 56.2197 112.33C56.3123 111.611 56.4431 110.897 56.6229 110.178C56.7646 109.644 56.9172 109.11 57.1352 108.576C56.7265 108.586 56.3177 108.603 55.909 108.619C54.176 108.69 52.443 108.864 50.7099 109.061C51.1187 110.172 51.3966 111.284 51.631 112.396C51.7781 113.11 51.898 113.824 51.9852 114.538C52.0833 115.252 52.1541 115.965 52.1923 116.685C52.2686 118.113 52.1487 119.551 52.0288 120.985C51.9688 121.704 51.9252 122.418 51.8053 123.137C51.6963 123.857 51.5274 124.571 51.3748 125.29C51.0478 126.729 50.8898 128.162 51.0315 129.59C51.1623 131.018 51.7617 132.44 52.0124 133.873C52.0124 133.901 52.0179 133.928 52.0233 133.955C53.3585 134.255 54.7046 134.522 56.0671 134.74C56.0398 134.435 56.0126 134.124 56.0017 133.819Z" fill="#2D2A26"/>
<path id="Vector_14" d="M51.3256 88.7821C51.2167 89.5015 51.0477 90.2209 50.8951 90.9348C50.5681 92.3735 50.4101 93.8068 50.5518 95.2347C50.6826 96.6625 51.282 98.0903 51.5327 99.5182C51.669 100.232 51.6908 100.946 51.669 101.665C51.6417 102.385 51.5927 103.099 51.4946 103.818C51.4019 104.537 51.2711 105.251 51.0859 105.971C50.9823 106.374 50.8624 106.777 50.7207 107.181C52.4483 107.322 54.1704 107.448 55.898 107.469C57.7945 107.508 59.6856 107.458 61.5766 107.366C62.0072 107.344 62.4323 107.317 62.8628 107.29C62.6557 106.799 62.4977 106.303 62.3505 105.813C62.1489 105.099 61.9963 104.385 61.8818 103.671C61.7674 102.957 61.6911 102.243 61.6475 101.529C61.5985 100.815 61.6039 100.096 61.7183 99.3819C61.9309 97.9486 62.4922 96.5099 62.5794 95.0766C62.6775 93.6433 62.4813 92.2155 62.1107 90.7877C61.9363 90.0737 61.751 89.3598 61.6202 88.6459C61.484 87.932 61.4186 87.2181 61.3369 86.5041C61.1788 85.0763 61.0153 83.643 61.0535 82.2097C61.0644 81.643 61.108 81.0707 61.157 80.504C57.9253 80.8364 54.7699 81.4032 51.6908 82.1716C51.6908 82.2315 51.7017 82.286 51.7017 82.346C51.778 83.7738 51.6581 85.2126 51.5382 86.6458C51.4782 87.3652 51.4346 88.0791 51.3147 88.7985" fill="#2D2A26"/>
<path id="Vector_15" d="M81.8717 129.159C81.9698 127.726 81.7736 126.298 81.403 124.87C81.2286 124.157 81.0433 123.443 80.9125 122.729C80.7763 122.015 80.7109 121.301 80.6292 120.587C80.4711 119.159 80.3076 117.726 80.3458 116.293C80.3621 115.579 80.4112 114.859 80.4875 114.145C80.5583 113.426 80.6564 112.712 80.7817 111.993C80.9289 111.159 81.1087 110.32 81.3431 109.486C80.4439 109.469 79.5446 109.448 78.6454 109.426C76.7489 109.382 74.8579 109.36 72.9613 109.251C71.0648 109.164 69.1683 109.012 67.2718 108.875C65.8712 108.777 64.4761 108.685 63.0809 108.625C63.5496 109.824 63.8548 111.028 64.1055 112.232C64.2526 112.946 64.3725 113.66 64.4597 114.374C64.5578 115.088 64.6287 115.802 64.6668 116.516C64.7485 117.949 64.6232 119.383 64.5033 120.816C64.4434 121.535 64.3998 122.249 64.2799 122.968C64.1709 123.688 64.0019 124.407 63.8493 125.121C63.5224 126.56 63.3643 127.993 63.506 129.421C63.6368 130.849 64.2363 132.277 64.487 133.705C64.6069 134.331 64.6341 134.958 64.6232 135.59C65.7459 135.628 66.8685 135.65 68.0075 135.634C72.4327 135.568 76.7489 135.078 80.9289 134.211C80.9452 133.966 80.967 133.721 81.0052 133.476C81.2177 132.042 81.7791 130.604 81.8663 129.17" fill="#2D2A26"/>
<path id="Vector_16" d="M87.0326 103.311C86.9182 102.597 86.8419 101.883 86.7983 101.169C86.7493 100.455 86.7602 99.7361 86.8692 99.0222C87.0817 97.5889 87.6376 96.1501 87.7302 94.7169C87.8283 93.2836 87.6321 91.8557 87.267 90.4279C87.0926 89.714 86.9073 89 86.7765 88.2861C86.6403 87.5722 86.5694 86.8583 86.4931 86.1444C86.3623 84.9509 86.2261 83.7628 86.2097 82.5693C82.2641 81.4848 78.1822 80.7437 73.9914 80.3894C74.0568 80.9344 74.1058 81.4794 74.1385 82.0243C74.2148 83.4576 74.0949 84.8909 73.975 86.3242C73.9151 87.0436 73.8715 87.7575 73.7516 88.4769C73.6426 89.1962 73.4736 89.9156 73.321 90.6295C72.9941 92.0683 72.836 93.5016 72.9777 94.9294C73.1085 96.3572 73.708 97.7851 73.9587 99.2129C74.0949 99.9268 74.1167 100.641 74.0895 101.36C74.0677 102.074 74.0132 102.793 73.9151 103.513C73.8224 104.232 73.6916 104.946 73.5063 105.665C73.4464 105.894 73.381 106.123 73.3101 106.352C75.0759 106.21 76.8361 106.134 78.6019 106.047C81.5883 105.894 84.5748 105.747 87.5613 105.687C87.5395 105.616 87.5177 105.54 87.4959 105.469C87.2942 104.755 87.1416 104.041 87.0272 103.327" fill="#2D2A26"/>
<path id="Vector_17" d="M59.0156 112.298C59.13 113.012 59.2063 113.726 59.2499 114.44C59.2989 115.153 59.288 115.873 59.179 116.587C58.9665 118.02 58.4052 119.464 58.318 120.892C58.2199 122.325 58.4161 123.753 58.7812 125.181C58.9556 125.895 59.1409 126.609 59.2717 127.323C59.4079 128.037 59.4733 128.751 59.5551 129.465C59.7131 130.892 59.8766 132.326 59.8385 133.754C59.8276 134.244 59.7949 134.74 59.7567 135.23C60.3017 135.29 60.8521 135.339 61.4025 135.383C61.3862 134.833 61.408 134.282 61.5006 133.726C61.7132 132.293 62.2745 130.849 62.3617 129.421C62.4598 127.988 62.2636 126.56 61.893 125.132C61.7186 124.418 61.5333 123.704 61.4025 122.99C61.2663 122.276 61.2009 121.562 61.1192 120.848C60.9611 119.421 60.7976 117.987 60.8358 116.554C60.8521 115.84 60.9012 115.121 60.9775 114.407C61.0483 113.687 61.1519 112.974 61.2718 112.254C61.4897 111.028 61.7622 109.807 62.2091 108.581C62.002 108.576 61.8004 108.565 61.5933 108.559C60.3943 108.532 59.1954 108.527 57.991 108.548C58.2199 109.082 58.3943 109.611 58.5469 110.145C58.7485 110.859 58.9011 111.573 59.0156 112.287" fill="#2D2A26"/>
<path id="Vector_18" d="M71.1139 103.535C70.9995 102.821 70.9232 102.107 70.8796 101.393C70.8305 100.679 70.8414 99.9596 70.9504 99.2457C71.163 97.8124 71.7243 96.3682 71.8115 94.9403C71.9096 93.5071 71.7134 92.0792 71.3483 90.6514C71.1739 89.9375 70.9886 89.2235 70.8578 88.5096C70.7216 87.7957 70.6507 87.0818 70.5744 86.3624C70.4164 84.9346 70.2529 83.5067 70.291 82.0735C70.3074 81.4413 70.351 80.8091 70.4109 80.1769C69.9368 80.1606 69.4572 80.1497 68.9776 80.1442C69.0103 80.7928 68.9994 81.4467 68.8959 82.0952C68.6833 83.5285 68.122 84.9727 68.0348 86.4006C67.9367 87.8338 68.1329 89.2617 68.5035 90.6895C68.6779 91.4034 68.8632 92.1174 68.994 92.8313C69.1302 93.5452 69.2011 94.2591 69.2774 94.973C69.4354 96.4009 69.5989 97.8342 69.5607 99.2674C69.5444 99.9814 69.4954 100.701 69.4191 101.42C69.3482 102.139 69.2501 102.853 69.1248 103.573C68.934 104.646 68.6997 105.725 68.3455 106.799C69.5063 106.679 70.6671 106.565 71.8333 106.461C71.7461 106.2 71.6644 105.943 71.5881 105.682C71.3864 104.968 71.2338 104.254 71.1194 103.54" fill="#2D2A26"/>
<path id="Vector_19" d="M106.864 115.916C106.88 115.202 106.93 114.483 107.006 113.764C107.077 113.044 107.175 112.33 107.3 111.611C107.507 110.439 107.769 109.273 108.178 108.101C106.979 108.254 105.78 108.39 104.581 108.51C104.951 109.551 105.207 110.592 105.425 111.638C105.573 112.352 105.692 113.066 105.78 113.78C105.878 114.494 105.949 115.208 105.987 115.927C106.068 117.355 105.943 118.794 105.823 120.227C105.763 120.947 105.72 121.66 105.6 122.38C105.529 122.854 105.431 123.328 105.327 123.802C106.03 123.323 106.733 122.827 107.42 122.32C107.289 121.617 107.218 120.914 107.142 120.211C106.984 118.783 106.821 117.35 106.859 115.916" fill="#2D2A26"/>
<path id="Vector_20" d="M29.6413 123.454C29.505 122.74 29.4342 122.026 29.3579 121.312C29.1998 119.884 29.0363 118.451 29.0745 117.017C29.0908 116.304 29.1399 115.584 29.2162 114.87C29.287 114.151 29.3851 113.437 29.5105 112.718C29.6957 111.688 29.9192 110.652 30.2516 109.617C29.3361 109.562 28.426 109.491 27.5104 109.41C25.712 109.252 23.9135 109.05 22.1097 108.75C22.6819 110.096 23.0307 111.448 23.3141 112.799C23.4612 113.513 23.5811 114.227 23.6738 114.941C23.7719 115.655 23.8427 116.369 23.8754 117.088C23.9299 118.086 23.8863 119.077 23.8155 120.075C25.7501 121.672 27.772 123.159 29.8701 124.538C29.7829 124.173 29.7012 123.813 29.6358 123.448" fill="#2D2A26"/>
<path id="Vector_21" d="M42.5789 114.679C42.677 115.393 42.7479 116.107 42.7806 116.827C42.8569 118.254 42.737 119.693 42.6171 121.126C42.5571 121.846 42.5136 122.56 42.3937 123.279C42.2847 123.998 42.1157 124.712 41.9631 125.432C41.6361 126.87 41.4781 128.304 41.6198 129.732C41.6525 130.075 41.7124 130.418 41.7833 130.767C44.1703 131.726 46.6281 132.555 49.135 133.241C49.3912 132.031 49.7944 130.827 49.8707 129.617C49.9688 128.184 49.7726 126.756 49.4021 125.328C49.2277 124.614 49.0424 123.9 48.9116 123.186C48.7753 122.473 48.7045 121.759 48.6282 121.045C48.4701 119.617 48.3067 118.184 48.3448 116.75C48.3611 116.031 48.4102 115.317 48.4865 114.598C48.5573 113.878 48.6609 113.164 48.7808 112.445C48.977 111.36 49.2113 110.281 49.5655 109.197C47.8925 109.388 46.2194 109.584 44.5463 109.709C43.5381 109.785 42.5299 109.835 41.5162 109.862C41.8051 110.756 42.0231 111.644 42.2084 112.538C42.3555 113.252 42.4754 113.965 42.5626 114.679" fill="#2D2A26"/>
<path id="Vector_22" d="M89.8882 86.0899C89.8283 86.8093 89.7847 87.5232 89.6648 88.2426C89.5558 88.9619 89.3869 89.6759 89.2343 90.3952C88.9073 91.834 88.7492 93.2673 88.8909 94.6951C89.0217 96.1229 89.6212 97.5508 89.8719 98.9786C90.0027 99.6925 90.0299 100.406 90.0027 101.126C89.9809 101.84 89.9264 102.559 89.8283 103.278C89.7356 103.998 89.6048 104.712 89.4195 105.431C89.3977 105.507 89.3759 105.578 89.3596 105.655C89.5612 105.655 89.7629 105.655 89.9645 105.655C91.9046 105.655 93.8448 105.693 95.7903 105.753C95.7467 105.616 95.7031 105.48 95.665 105.349C95.4633 104.635 95.3107 103.922 95.1963 103.208C95.0818 102.494 95.011 101.78 94.962 101.066C94.9129 100.352 94.9184 99.6326 95.0328 98.9187C95.2453 97.4854 95.8067 96.0466 95.8939 94.6134C95.992 93.1801 95.7958 91.7522 95.4252 90.3244C95.2508 89.6105 95.0655 88.8965 94.9347 88.1826C94.7985 87.4687 94.7331 86.7548 94.6513 86.0409C94.6295 85.861 94.6132 85.6757 94.5914 85.4959C93.1036 84.8637 91.5831 84.2915 90.0408 83.7629C90.0081 84.5422 89.9427 85.327 89.8773 86.1117" fill="#2D2A26"/>
<path id="Vector_23" d="M40.4698 129.743C40.5679 128.309 40.3717 126.881 40.0012 125.454C39.8268 124.74 39.6415 124.026 39.5107 123.312C39.3744 122.598 39.309 121.884 39.2273 121.17C39.0692 119.742 38.9058 118.309 38.9439 116.876C38.9602 116.162 39.0093 115.442 39.0856 114.728C39.1564 114.009 39.2545 113.295 39.3799 112.576C39.5379 111.682 39.7287 110.783 39.9903 109.884C39.6197 109.884 39.2491 109.884 38.8731 109.884C36.9765 109.884 35.0855 109.84 33.189 109.764C32.644 109.742 32.0935 109.715 31.5486 109.687C31.8919 110.679 32.1371 111.677 32.3442 112.674C32.4914 113.388 32.6113 114.102 32.6985 114.816C32.7966 115.53 32.8674 116.243 32.9056 116.957C32.9819 118.391 32.862 119.824 32.7421 121.257C32.6821 121.977 32.6385 122.691 32.5186 123.41C32.4096 124.129 32.2407 124.849 32.0881 125.563C32.0663 125.672 32.039 125.781 32.0173 125.89C34.704 127.508 37.5052 128.952 40.4099 130.195C40.4317 130.042 40.448 129.89 40.4535 129.743" fill="#2D2A26"/>
<path id="Vector_24" d="M28.3988 95.5507C28.5296 96.9786 29.129 98.4064 29.3797 99.8343C29.516 100.548 29.5378 101.262 29.5105 101.981C29.4887 102.695 29.4342 103.415 29.3361 104.129C29.2435 104.848 29.1127 105.562 28.9328 106.281C28.8402 106.641 28.7366 107.001 28.6167 107.36C30.1318 107.202 31.6468 107.072 33.1564 106.968C34.0556 106.908 34.9548 106.854 35.854 106.81C35.7832 106.603 35.7178 106.396 35.6578 106.189C35.4562 105.475 35.3036 104.761 35.1892 104.047C35.0747 103.333 34.9984 102.619 34.9548 101.905C34.9058 101.191 34.9112 100.472 35.0257 99.758C35.2382 98.3247 35.7995 96.8859 35.8867 95.4526C35.9848 94.0193 35.7886 92.5915 35.4181 91.1637C35.2437 90.4498 35.0584 89.7358 34.9276 89.0219C34.9167 88.9674 34.9112 88.9129 34.9003 88.8584C32.6605 90.1173 30.5024 91.507 28.426 93.0057C28.3279 93.8559 28.3007 94.7115 28.3879 95.5616" fill="#2D2A26"/>
<path id="Vector_25" d="M100.853 103.115C100.739 102.401 100.662 101.687 100.619 100.973C100.57 100.259 100.581 99.5399 100.69 98.826C100.902 97.3927 101.458 95.9485 101.551 94.5207C101.649 93.0874 101.453 91.6595 101.088 90.2317C100.94 89.6268 100.782 89.0164 100.657 88.4115C99.7687 87.9264 98.8749 87.4632 97.9648 87.0218C97.9321 87.3924 97.8885 87.763 97.8286 88.1335C97.7196 88.8529 97.5506 89.5723 97.3981 90.2862C97.0711 91.7249 96.913 93.1582 97.0547 94.5861C97.1855 96.0139 97.785 97.4417 98.0357 98.8696C98.1719 99.5835 98.1937 100.297 98.1665 101.017C98.1447 101.731 98.0902 102.45 97.9921 103.169C97.8994 103.889 97.7686 104.603 97.5833 105.322C97.5397 105.486 97.4961 105.655 97.4471 105.818C98.7387 105.867 100.03 105.927 101.327 105.998C101.404 105.998 101.474 106.009 101.551 106.014C101.469 105.769 101.387 105.518 101.316 105.273C101.115 104.559 100.962 103.845 100.848 103.131" fill="#2D2A26"/>
<path id="Vector_26" d="M111.257 102.968C111.142 102.254 111.066 101.54 111.023 100.826C110.973 100.112 110.984 99.3928 111.093 98.6789C111.23 97.7633 111.508 96.8423 111.709 95.9267C109.012 93.6814 106.145 91.6432 103.131 89.8284C103.104 89.9538 103.077 90.0791 103.05 90.199C102.723 91.6378 102.564 93.071 102.706 94.4989C102.837 95.9267 103.436 97.3546 103.687 98.7824C103.823 99.4963 103.845 100.21 103.823 100.93C103.796 101.644 103.747 102.363 103.649 103.077C103.556 103.796 103.426 104.51 103.246 105.229C103.169 105.518 103.088 105.807 102.995 106.091C106.14 106.303 109.284 106.57 112.429 107.022C112.123 106.385 111.905 105.747 111.72 105.11C111.518 104.396 111.366 103.682 111.251 102.968" fill="#2D2A26"/>
<path id="Vector_27" d="M64.901 82.1497C64.9828 83.5776 64.8574 85.0163 64.7375 86.4496C64.6776 87.169 64.634 87.8829 64.5141 88.6022C64.4051 89.3216 64.2362 90.0355 64.0836 90.7549C63.7566 92.1936 63.5985 93.6269 63.7402 95.0548C63.871 96.4826 64.4705 97.9104 64.7212 99.3383C64.8574 100.052 64.8792 100.766 64.852 101.485C64.8302 102.199 64.7757 102.919 64.6776 103.638C64.5849 104.358 64.4542 105.071 64.2743 105.791C64.149 106.265 64.0073 106.745 63.8274 107.219C64.9501 107.131 66.0673 107.022 67.1899 106.913C66.7867 105.813 66.5142 104.712 66.2798 103.611C66.1327 102.897 66.0128 102.183 65.9256 101.469C65.8275 100.755 65.7566 100.041 65.7185 99.3219C65.6422 97.8941 65.7621 96.4554 65.882 95.0221C65.9419 94.3027 65.9855 93.5888 66.1054 92.8694C66.2144 92.15 66.3834 91.4307 66.536 90.7168C66.8629 89.278 67.021 87.8447 66.8793 86.4169C66.7485 84.9891 66.149 83.5667 65.8983 82.1334C65.7784 81.4849 65.7457 80.8309 65.7621 80.1824C65.4133 80.1933 65.0645 80.2096 64.7212 80.226C64.8029 80.869 64.8683 81.5067 64.901 82.1497Z" fill="#2D2A26"/>
<path id="Vector_28" d="M102.428 120.276C102.27 118.848 102.107 117.415 102.145 115.982C102.161 115.268 102.21 114.549 102.287 113.829C102.357 113.11 102.461 112.396 102.581 111.677C102.761 110.663 102.984 109.649 103.3 108.636C102.657 108.696 102.009 108.761 101.366 108.815C99.0222 109.017 96.6733 109.17 94.3245 109.295C94.5861 110.123 94.7822 110.952 94.9566 111.786C95.1038 112.499 95.2237 113.213 95.3109 113.927C95.409 114.641 95.4798 115.355 95.5125 116.075C95.5888 117.502 95.4689 118.941 95.349 120.374C95.2891 121.088 95.2455 121.808 95.1256 122.527C95.0166 123.246 94.8476 123.96 94.695 124.68C94.3681 126.118 94.21 127.552 94.3517 128.98C94.379 129.263 94.4226 129.552 94.4825 129.835C97.5562 128.473 100.504 126.892 103.322 125.11C103.278 124.925 103.235 124.745 103.191 124.56C103.017 123.846 102.832 123.132 102.701 122.418C102.565 121.704 102.494 120.99 102.417 120.276" fill="#2D2A26"/>
<path id="Vector_29" d="M114.096 98.6353C114.232 99.3492 114.254 100.063 114.227 100.782C114.205 101.496 114.151 102.216 114.053 102.935C113.96 103.655 113.829 104.368 113.649 105.088C113.459 105.807 113.246 106.527 112.897 107.246C112.886 107.262 112.875 107.279 112.864 107.289C112.848 107.36 112.788 107.415 112.723 107.426C111.524 107.638 110.325 107.818 109.126 107.982C109.589 109.181 109.894 110.38 110.145 111.578C110.292 112.292 110.412 113.006 110.499 113.72C110.597 114.434 110.668 115.148 110.706 115.867C110.777 117.192 110.679 118.521 110.57 119.851C115.034 116.129 119.023 111.845 122.434 107.11C119.884 103.763 117.034 100.673 113.933 97.8559C113.998 98.1175 114.058 98.3791 114.102 98.6353" fill="#2D2A26"/>
<path id="Vector_30" d="M20.4746 112.843C20.7307 111.41 21.0631 109.971 21.6517 108.532C21.6517 108.527 21.6626 108.521 21.6626 108.51V108.499C21.6735 108.423 21.7335 108.363 21.8043 108.352C23.6681 107.976 25.5319 107.72 27.3958 107.497C27.2432 107.099 27.1178 106.706 27.0034 106.309C26.8017 105.595 26.6491 104.881 26.5347 104.167C26.4203 103.453 26.3494 102.739 26.3004 102.025C26.2513 101.311 26.2568 100.592 26.3712 99.8779C26.5837 98.4446 27.1451 97.0058 27.2323 95.5725C27.2704 95.0167 27.265 94.4553 27.2214 93.8995C21.7171 98.0631 16.9758 102.281 12.9321 107.9C15.1338 110.783 17.0412 113.475 19.6571 115.971" fill="#2D2A26"/>
<path id="Vector_31" d="M37.3962 91.1256C37.0692 92.5643 36.9112 93.9976 37.0529 95.4255C37.1837 96.8533 37.7831 98.2811 38.0338 99.709C38.1701 100.423 38.1919 101.137 38.1701 101.856C38.1428 102.57 38.0938 103.289 37.9957 104.009C37.903 104.728 37.7723 105.442 37.5924 106.161C37.5434 106.358 37.4889 106.554 37.4289 106.75C37.8976 106.734 38.3717 106.706 38.8404 106.696C40.7315 106.625 42.628 106.625 44.5245 106.717C44.6172 106.717 44.7152 106.728 44.8079 106.734C44.4973 105.802 44.2684 104.864 44.0722 103.927C43.925 103.213 43.8051 102.499 43.7179 101.785C43.6198 101.071 43.549 100.357 43.5163 99.6381C43.44 98.2103 43.5599 96.7716 43.6798 95.3383C43.7397 94.6189 43.7833 93.905 43.9032 93.1856C44.0122 92.4662 44.1812 91.7469 44.3338 91.0329C44.6607 89.5942 44.8188 88.1609 44.6771 86.7331C44.6117 85.9919 44.4155 85.2508 44.2139 84.5096C42.1048 85.3053 40.0394 86.2045 38.0338 87.1963C37.9848 87.7903 37.9357 88.3789 37.8431 88.9729C37.7341 89.6923 37.5652 90.4062 37.4126 91.1256" fill="#2D2A26"/>
<path id="Vector_32" d="M85.4522 126.958C85.5612 126.238 85.7301 125.519 85.8827 124.805C86.2097 123.366 86.3677 121.933 86.226 120.505C86.0952 119.077 85.4958 117.649 85.2451 116.222C85.1088 115.508 85.087 114.794 85.1143 114.074C85.1361 113.355 85.1906 112.641 85.2887 111.922C85.3813 111.202 85.5121 110.489 85.692 109.769C85.7138 109.687 85.7356 109.611 85.7574 109.529C84.8418 109.529 83.9262 109.518 83.0107 109.502C83.2614 110.314 83.4576 111.126 83.6265 111.944C83.7736 112.658 83.8935 113.371 83.9807 114.085C84.0788 114.799 84.1497 115.513 84.1878 116.227C84.2696 117.66 84.1442 119.094 84.0243 120.527C83.9644 121.246 83.9208 121.96 83.8009 122.68C83.6919 123.399 83.523 124.113 83.3704 124.832C83.0434 126.271 82.8853 127.704 83.027 129.132C83.1578 130.56 83.7573 131.988 84.008 133.416C84.008 133.437 84.008 133.459 84.0189 133.481C84.3677 133.388 84.7165 133.296 85.0598 133.198C85.0053 131.835 85.1197 130.467 85.2287 129.105C85.2887 128.386 85.3323 127.672 85.4522 126.952" fill="#2D2A26"/>
<path id="Vector_33" d="M46.2901 91.0002C46.4645 91.7141 46.6498 92.4281 46.7805 93.142C46.9168 93.8559 46.9822 94.5698 47.0639 95.2837C47.222 96.7116 47.3855 98.1449 47.3473 99.5781C47.331 100.292 47.2819 101.011 47.2056 101.731C47.1348 102.45 47.0312 103.164 46.9113 103.883C46.737 104.859 46.5244 105.834 46.2247 106.815C47.3201 106.892 48.4209 106.984 49.5163 107.082C49.3801 106.723 49.2711 106.363 49.1621 106.003C48.9605 105.289 48.8079 104.576 48.6934 103.862C48.579 103.148 48.5081 102.434 48.4591 101.72C48.41 101.006 48.4155 100.287 48.5299 99.5727C48.7425 98.1394 49.3038 96.7007 49.391 95.2674C49.4891 93.8341 49.2929 92.4063 48.9223 90.9784C48.7479 90.2645 48.5626 89.5506 48.4318 88.8367C48.2956 88.1227 48.2302 87.4088 48.1484 86.6949C48.0231 85.5505 47.8923 84.4006 47.8651 83.2561C47.38 83.4087 46.895 83.5667 46.41 83.7302C46.1702 84.733 45.8813 85.7303 45.8159 86.7331C45.7178 88.1663 45.914 89.5942 46.2846 91.022" fill="#2D2A26"/>
<path id="Vector_34" d="M92.7441 124.707C92.5697 123.993 92.3844 123.279 92.2536 122.565C92.1173 121.851 92.0519 121.137 91.9702 120.423C91.8121 118.996 91.6487 117.562 91.6868 116.129C91.7032 115.415 91.7522 114.696 91.8285 113.976C91.8993 113.257 91.9974 112.543 92.1228 111.824C92.2699 111.012 92.4389 110.194 92.6678 109.377C91.7849 109.415 90.8966 109.448 90.0137 109.475C89.1908 109.502 88.3679 109.513 87.545 109.519C87.5668 109.589 87.5886 109.66 87.6104 109.737C87.812 110.45 87.9646 111.164 88.0791 111.878C88.1935 112.592 88.2698 113.306 88.3134 114.025C88.3625 114.739 88.3516 115.459 88.2426 116.173C88.03 117.606 87.4687 119.05 87.3815 120.478C87.2834 121.911 87.4796 123.339 87.8502 124.767C88.0246 125.481 88.2099 126.195 88.3407 126.909C88.4769 127.623 88.5423 128.337 88.624 129.05C88.733 130.037 88.842 131.029 88.8911 132.015C90.2753 131.546 91.6378 131.029 92.9838 130.473C93.0928 129.977 93.18 129.481 93.2127 128.985C93.3108 127.552 93.1146 126.124 92.7495 124.696" fill="#2D2A26"/>
<path id="Vector_35" d="M73.7409 29.1889C73.3485 29.1671 72.9506 29.1399 72.5583 29.1072C72.2912 29.5159 72.0078 29.9137 71.719 30.3061C71.1522 31.0691 70.5527 31.7939 69.926 32.4915C69.2993 33.189 68.6562 33.8594 67.9805 34.5079C67.3156 35.1618 66.6126 35.7722 65.8387 36.3063C64.3073 37.3854 62.547 38.2192 61.092 39.3854C59.6314 40.5462 58.3616 41.9196 57.2063 43.4182C56.6231 44.1594 56.0455 44.9115 55.4296 45.6199C54.8193 46.3339 54.1653 46.9987 53.5168 47.6745C52.2197 49.0206 50.9336 50.3721 49.5112 51.5765C49.1134 51.9144 48.7101 52.2414 48.2959 52.5684C51.8219 53.642 55.4678 54.4322 59.2063 54.9227C59.2281 54.8954 59.2499 54.8682 59.2772 54.8409C59.9475 54.0943 60.6396 53.3804 61.3535 52.6828C62.0675 51.9853 62.8141 51.3258 63.637 50.7482C65.2665 49.5819 67.1357 48.6718 68.6835 47.4129C70.2421 46.1649 71.5936 44.6935 72.8362 43.0967C73.4629 42.3065 74.0842 41.5054 74.7382 40.7479C75.3921 39.9849 76.0897 39.271 76.7818 38.5516C78.1661 37.1129 79.5449 35.6632 81.0599 34.3716C81.8174 33.7231 82.5913 33.0964 83.3869 32.4915C84.1771 31.8811 84.9892 31.2925 85.8175 30.7257C86.3407 30.3715 86.8693 30.0227 87.4034 29.6794C84.7385 29.6521 82.0735 29.554 79.4086 29.4559C77.5175 29.3851 75.621 29.336 73.7245 29.1998" fill="#78853C"/>
<path id="Vector_36" d="M42.2409 15.2648C43.7886 16.5237 45.6524 17.4338 47.2874 18.6001C48.1103 19.1777 48.8569 19.8372 49.5708 20.5293C50.2847 21.2269 50.9823 21.9408 51.6472 22.6874C52.3175 23.434 52.9606 24.2079 53.5655 25.0199C54.0505 25.6793 54.5246 26.3551 54.9497 27.0799C55.5328 27.118 56.1105 27.1453 56.6936 27.1616C58.5902 27.2216 60.4812 27.2052 62.3777 27.1344C64.2743 27.069 66.1653 26.911 68.0619 26.7529C68.8902 26.6821 69.724 26.6058 70.5524 26.5349C69.6041 25.9736 68.6886 25.385 67.7894 24.7692C66.961 24.2024 66.149 23.6138 65.3588 23.0035C64.5631 22.3986 63.7838 21.7718 63.0317 21.1233C61.5167 19.8263 60.1379 18.3821 58.7537 16.9433C58.0615 16.224 57.364 15.5101 56.71 14.7471C56.056 13.9896 55.4347 13.1885 54.808 12.3982C53.5655 10.8015 52.2085 9.33002 50.6553 8.08203C49.1076 6.82313 47.2438 5.91302 45.6088 4.74677C45.32 4.54513 45.0475 4.33259 44.775 4.10915C41.6741 5.2427 38.6767 6.59969 35.7993 8.15287C35.93 8.29457 36.0608 8.44171 36.1862 8.58885C36.8402 9.34637 37.4614 10.1475 38.0882 10.9377C39.3307 12.5345 40.6877 14.0059 42.2409 15.2539" fill="#78853C"/>
<path id="Vector_37" d="M83.4904 22.9053C82.7274 22.2622 82.0026 21.581 81.3486 20.818C80.0298 19.3084 78.9453 17.5372 77.5392 16.1203C76.1441 14.6925 74.5473 13.4826 72.8415 12.4036C71.9914 11.8531 71.1358 11.3191 70.3183 10.7359C69.4954 10.1583 68.7215 9.53154 67.9368 8.91571C66.3672 7.67862 64.7977 6.44697 63.3644 5.06273C62.645 4.37061 61.9475 3.66214 61.2662 2.92642C60.585 2.19615 59.9202 1.44409 59.2716 0.675671C59.2444 0.642973 59.2226 0.615724 59.1953 0.583025C55.3642 1.0844 51.6311 1.90187 48.0233 3.01362C49.1678 4.40876 50.1705 5.96194 51.424 7.23174C52.8191 8.65957 54.4159 9.86942 56.1217 10.9485C56.9718 11.4989 57.8274 12.033 58.6449 12.6161C59.4678 13.1938 60.2417 13.8205 61.0265 14.4363C62.596 15.6734 64.1655 16.9051 65.5988 18.2893C66.3182 18.9814 67.0157 19.6899 67.697 20.4256C68.3782 21.1559 69.0431 21.9079 69.6916 22.6764C70.678 23.859 71.6371 25.0743 72.5091 26.3876C72.9178 26.3604 73.3266 26.3277 73.7353 26.3059C75.6318 26.1697 77.5229 26.1206 79.4194 26.0498C82.068 25.9517 84.7166 25.859 87.3706 25.8263C86.8529 25.483 86.3406 25.1342 85.8392 24.7636C85.0327 24.1696 84.2533 23.5483 83.4904 22.9053Z" fill="#78853C"/>
<path id="Vector_38" d="M81.4031 50.4321C82.8363 49.0479 84.4113 47.8162 85.9809 46.5791C86.7656 45.9579 87.5395 45.3311 88.3624 44.7589C89.1799 44.1812 90.0355 43.6417 90.8857 43.0913C92.5969 42.0068 94.1882 40.8024 95.5833 39.3746C96.9839 37.9576 98.0739 36.1864 99.3927 34.6769C100.047 33.9139 100.772 33.2327 101.534 32.5896C102.297 31.9465 103.077 31.3198 103.883 30.7312C104.69 30.1372 105.524 29.5704 106.39 29.0473C106.548 28.9546 106.706 28.862 106.864 28.7693C105.295 28.9219 103.72 29.0527 102.15 29.1726C98.3627 29.4451 94.5751 29.6086 90.7876 29.6685C90.5805 29.6685 90.3734 29.6685 90.1608 29.674C89.3979 30.7694 88.5804 31.8103 87.7357 32.8185C87.0872 33.5869 86.4277 34.339 85.7411 35.0692C85.0599 35.805 84.3623 36.5189 83.6429 37.2055C82.2096 38.5898 80.6346 39.8214 79.0706 41.0585C78.2858 41.6798 77.5119 42.3065 76.689 42.8788C75.8716 43.4564 75.0159 43.996 74.1658 44.5464C72.46 45.6309 70.8632 46.8353 69.4681 48.2631C68.0675 49.6855 66.9775 51.4512 65.6587 52.9608C65.0047 53.7238 64.2799 54.405 63.5169 55.0481C63.4079 55.1407 63.2989 55.2279 63.19 55.3151C64.7976 55.4296 66.4217 55.495 68.0566 55.495C71.1848 55.495 74.2584 55.277 77.2721 54.8628C77.283 54.8464 77.2939 54.8355 77.3103 54.8192C77.9588 54.0508 78.6182 53.2987 79.3049 52.5684C79.9807 51.8327 80.6782 51.1188 81.4031 50.4321Z" fill="#78853C"/>
<path id="Vector_39" d="M63.3809 0.163565C63.4572 0.223512 63.5389 0.27801 63.6152 0.337957C64.4109 0.942881 65.1902 1.5696 65.9423 2.21813C67.4573 3.51517 68.8361 4.95936 70.2203 6.39809C70.9125 7.11746 71.61 7.83138 72.264 8.59435C72.918 9.35186 73.5392 10.153 74.166 10.9432C75.4085 12.54 76.7655 14.0114 78.3187 15.2594C79.8664 16.5183 81.7302 17.4284 83.3652 18.5947C84.1881 19.1723 84.9347 19.8318 85.6486 20.5293C86.3625 21.2214 87.0601 21.9408 87.725 22.6874C88.3953 23.434 89.0384 24.2079 89.6433 25.0199C89.8395 25.2815 90.0302 25.5486 90.2155 25.8156C90.4063 25.8156 90.597 25.8156 90.7877 25.8156C94.5753 25.8755 98.3629 26.0445 102.151 26.317C103.758 26.4423 105.366 26.5731 106.974 26.7312C105.905 26.1153 104.875 25.4559 103.867 24.7692C103.039 24.2025 102.227 23.6139 101.437 23.0035C100.641 22.3986 99.8616 21.7719 99.1041 21.1233C97.5891 19.8263 96.2103 18.3821 94.826 16.9434C94.1339 16.224 93.4363 15.5101 92.7824 14.7471C92.1284 13.9896 91.5071 13.1885 90.8804 12.3983C89.6378 10.8015 88.2809 9.33006 86.7277 8.08207C85.1799 6.82317 83.3161 5.91306 81.6812 4.74681C80.8583 4.16914 80.1117 3.50972 79.3977 2.81215C78.6838 2.12003 77.9863 1.40066 77.3214 0.654043C77.3159 0.648594 77.305 0.637694 77.2996 0.626794C74.275 0.212613 71.1904 -0.00537796 68.0568 -0.00537796C66.4818 -0.00537796 64.9232 0.0545694 63.3809 0.158115" fill="#78853C"/>
<path id="Vector_40" d="M27.2325 34.6714C27.8865 33.9084 28.6113 33.2272 29.3743 32.5841C30.1373 31.9411 30.9166 31.3143 31.7231 30.7258C32.4752 30.1699 33.2545 29.6467 34.0611 29.1453C34.0284 29.1453 33.9957 29.1453 33.963 29.1453C32.0665 29.0418 30.1754 28.9001 28.2789 28.7093C26.3878 28.5132 24.4913 28.2788 22.5948 27.9246C22.4967 27.9082 22.4313 27.8101 22.4476 27.712C22.464 27.6357 22.5239 27.5812 22.5948 27.5649C24.4913 27.2107 26.3824 26.9763 28.2789 26.7801C30.17 26.5839 32.0665 26.4477 33.963 26.3441C34.0175 26.3441 34.0665 26.3441 34.121 26.3387C33.2981 25.8428 32.497 25.3141 31.7068 24.7801C30.8784 24.2078 30.0664 23.6247 29.2762 23.0143C28.4805 22.4094 27.7012 21.7827 26.9492 21.1342C25.5213 19.9134 24.2134 18.5564 22.9109 17.1994C19.3413 20.3658 16.0987 23.9027 13.2484 27.7502C16.3221 31.8975 19.8481 35.6796 23.7447 39.0366C24.9981 37.6797 26.0172 36.072 27.2325 34.6768" fill="#78853C"/>
<path id="Vector_41" d="M36.3827 29.2543C36.1047 29.6685 35.8159 30.0718 35.5271 30.4696C34.9167 31.2816 34.2736 32.0555 33.6087 32.8021C32.9439 33.5487 32.2463 34.2681 31.5324 34.9602C30.8185 35.6578 30.0719 36.3117 29.2489 36.8949C27.7884 37.9358 26.148 38.775 24.7093 39.8432C27.5922 42.2302 30.6659 44.3828 33.9085 46.2739C34.9385 45.2984 35.8813 44.2248 36.7696 43.0912C37.3963 42.301 38.0176 41.4999 38.6716 40.7424C39.3255 39.9794 40.0231 39.2655 40.7152 38.5461C42.0995 37.1074 43.4783 35.6578 44.9933 34.3662C45.7508 33.7177 46.5247 33.0909 47.3204 32.486C48.1106 31.8756 48.9226 31.2871 49.7509 30.7203C50.8736 29.9519 52.0289 29.2161 53.2388 28.5404C50.6011 28.7638 47.9689 29.0908 45.3312 29.2488C43.4401 29.3687 41.5436 29.3905 39.6471 29.3469C38.5571 29.3306 37.4726 29.2979 36.3827 29.2543Z" fill="#78853C"/>
<path id="Vector_42" d="M83.6975 2.52868C85.0164 4.03827 86.1009 5.80944 87.5069 7.22638C88.902 8.65422 90.4988 9.86406 92.2046 10.9431C93.0548 11.4935 93.9104 12.0276 94.7278 12.6107C95.5508 13.1884 96.3246 13.8151 97.1094 14.431C98.6789 15.6681 100.248 16.8997 101.682 18.2839C102.401 18.9706 103.099 19.6845 103.78 20.4203C104.461 21.1505 105.126 21.9026 105.775 22.671C106.903 24.0171 107.982 25.4177 108.946 26.9436C110.467 27.118 111.987 27.3142 113.513 27.5649C113.611 27.5812 113.682 27.6739 113.666 27.772C113.655 27.8537 113.589 27.9082 113.513 27.9246C112.009 28.1698 110.499 28.366 108.995 28.5404C108.587 29.2162 108.14 29.8483 107.682 30.4696C107.077 31.2816 106.428 32.0555 105.764 32.8021C105.093 33.5487 104.401 34.2681 103.687 34.9602C102.973 35.6578 102.227 36.3118 101.404 36.8894C99.7743 38.0557 97.905 38.9658 96.3573 40.2247C94.7987 41.4727 93.4471 42.9441 92.2046 44.5409C91.5779 45.3311 90.9566 46.1322 90.3026 46.8898C89.6487 47.6527 88.9511 48.3666 88.259 49.086C86.8747 50.5247 85.4959 51.9744 83.9809 53.266C83.8011 53.424 83.6103 53.5712 83.4305 53.7238C99.4528 50.007 113.328 40.6116 122.87 27.7393C113.213 14.7089 99.1149 5.24266 82.8474 1.61857C83.1416 1.90741 83.425 2.20715 83.6975 2.52323" fill="#78853C"/>
<path id="Vector_43" d="M31.6247 20.4258C32.3059 21.156 32.9708 21.9081 33.6193 22.6765C34.5676 23.8155 35.4941 24.9872 36.3388 26.2407C37.4396 26.1971 38.5459 26.1644 39.6468 26.148C41.5378 26.1044 43.4344 26.1317 45.3309 26.2461C47.9304 26.4041 50.5299 26.7257 53.1349 26.9491C52.8461 26.7856 52.5573 26.6221 52.2739 26.4477C51.4074 25.9246 50.5735 25.3578 49.767 24.7638C48.9604 24.1697 48.1811 23.5485 47.4181 22.9054C46.6552 22.2623 45.9304 21.5811 45.2764 20.8181C43.9575 19.3086 42.873 17.5374 41.467 16.1204C40.0719 14.6926 38.4751 13.4882 36.7693 12.4037C35.9191 11.8533 35.0635 11.3192 34.2461 10.7361C33.8101 10.4309 33.385 10.1094 32.9654 9.78237C30.3931 11.341 27.9298 13.0577 25.5864 14.9324C26.9434 16.006 28.2895 17.0905 29.532 18.2894C30.2514 18.9816 30.949 19.69 31.6302 20.4258" fill="#78853C"/>
<path id="Vector_44" d="M49.6637 35.0638C48.9824 35.7995 48.2849 36.5134 47.5655 37.2001C46.1268 38.5843 44.5572 39.816 42.9877 41.0531C42.2029 41.6743 41.4291 42.3011 40.6061 42.8733C39.7887 43.451 38.9331 43.9905 38.0829 44.5409C36.9712 45.2494 35.903 46.0069 34.9111 46.8462C38.0012 48.5792 41.2383 50.0724 44.6008 51.315C45.3856 50.4539 46.1922 49.6146 47.026 48.8081C48.3721 47.5165 49.8489 46.3775 51.3204 45.2276C52.0561 44.6554 52.7864 44.0722 53.5602 43.5382C54.3287 43.0041 55.1352 42.5027 55.9363 42.0013C57.544 41.004 59.0427 39.8868 60.3506 38.5516C61.664 37.2273 62.6722 35.5652 63.9039 34.1482C64.5143 33.4397 65.1955 32.7967 65.9148 32.2081C66.6233 31.6032 67.359 31.031 68.1166 30.4805C68.8686 29.9356 69.6425 29.4178 70.4545 28.9382C69.6588 28.8674 68.8577 28.7966 68.0621 28.7312C66.1655 28.5731 64.2745 28.4205 62.378 28.3497C60.4869 28.2788 58.5904 28.2625 56.6938 28.3224C56.0998 28.3388 55.5058 28.3715 54.9172 28.4042C53.9308 29.9792 52.8191 31.4233 51.6583 32.8076C51.0097 33.576 50.3503 34.3281 49.6637 35.0583" fill="#78853C"/>
<path id="Vector_45" d="M110.984 98.1666C111.693 96.7333 112.287 95.2401 112.837 93.7251C113.388 92.2046 113.884 90.6678 114.363 89.1146C114.832 87.5614 115.301 86.0028 115.802 84.4441C116.805 81.3378 117.955 78.215 118.565 74.9779C118.876 73.3648 119.094 71.7298 119.203 70.0894C119.252 69.272 119.279 68.4491 119.252 67.6425C119.241 66.8359 119.143 66.0403 119.039 65.2337C118.805 63.6206 118.483 62.0129 118.184 60.4052C117.868 58.7975 117.579 57.1844 117.252 55.5822C116.587 52.3723 115.824 49.1951 115.083 46.0233C114.342 42.8515 113.562 39.6907 112.592 36.6007C112.341 35.8322 112.096 35.0638 111.813 34.3063C111.682 33.9248 111.519 33.5597 111.377 33.1837C111.241 32.8022 111.066 32.4479 110.908 32.0773C110.347 30.8621 109.709 29.6795 108.805 28.693C108.794 29.6195 108.788 30.5514 108.783 31.4779C108.984 31.6305 109.159 31.8103 109.311 31.9956C109.557 32.2953 109.769 32.6169 109.954 32.9439C110.325 33.6033 110.641 34.2791 110.914 34.9657C111.192 35.6524 111.442 36.3445 111.66 37.0475C111.884 37.7451 112.096 38.4481 112.287 39.1511C113.044 41.9741 113.595 44.8243 114.009 47.6855C114.418 50.552 114.609 53.435 114.767 56.3179C114.843 57.7621 114.925 59.2008 114.925 60.645C114.946 62.0892 114.897 63.5388 114.843 64.9939C114.816 65.7133 114.794 66.4545 114.712 67.212L114.461 69.3755C114.303 70.8088 114.167 72.2421 114.085 73.6808C113.906 76.5529 114.064 79.4685 113.873 82.3569C113.78 83.801 113.595 85.2398 113.333 86.6676C113.083 88.0955 112.777 89.5179 112.407 90.9293C112.036 92.3408 111.6 93.7469 111.023 95.1148C110.734 95.796 110.412 96.4772 110.014 97.1257C109.895 97.3219 109.764 97.5072 109.622 97.6925L109.649 100.445C109.698 100.379 109.747 100.308 109.796 100.243C110.227 99.5727 110.63 98.8914 110.979 98.1666" fill="#FFB548"/>
<path id="Vector_46" d="M105.595 35.3909L105.328 35.9304L105.088 36.4863C104.919 36.8514 104.766 37.222 104.619 37.598C104.461 37.9686 104.325 38.3501 104.189 38.7316C104.047 39.1076 103.916 39.4891 103.785 39.876C102.744 42.9388 101.905 46.0888 101.137 49.2551C100.368 52.4214 99.5781 55.5986 98.9405 58.8085C98.6244 60.4107 98.3519 62.0239 98.0849 63.6261C98.025 64.0294 97.9541 64.4272 97.9051 64.8305C97.8397 65.2338 97.7906 65.6262 97.7416 66.0294C97.6489 66.8197 97.6053 67.6099 97.5835 68.4273C97.5236 71.7026 97.8342 75.0215 98.4773 78.2587C99.1149 81.5013 100.243 84.6404 101.213 87.774C101.698 89.3435 102.145 90.9131 102.586 92.4826C103.039 94.0467 103.497 95.6107 104.014 97.1476C104.532 98.6844 105.082 100.199 105.742 101.66C106.091 102.423 106.472 103.175 106.924 103.878L106.952 101.137C106.837 100.973 106.734 100.804 106.636 100.635C106.249 99.976 105.949 99.2948 105.671 98.6027C105.121 97.2239 104.706 95.8124 104.347 94.3955C103.992 92.9785 103.698 91.5507 103.464 90.1174C103.213 88.6841 103.039 87.2454 102.952 85.7957C102.777 82.8964 102.952 79.9754 102.766 77.0979C102.685 75.6592 102.548 74.2259 102.379 72.7926C102.21 71.3593 101.981 69.9315 101.774 68.4873C101.676 67.7679 101.551 67.0485 101.513 66.2529C101.469 65.5008 101.458 64.776 101.458 64.0457C101.447 62.5906 101.529 61.141 101.605 59.6968C101.763 56.803 101.965 53.9092 102.39 51.0371C102.821 48.1651 103.388 45.3094 104.183 42.4865C104.379 41.778 104.603 41.0804 104.837 40.3828C105.066 39.6853 105.328 38.9932 105.622 38.3065C105.905 37.6198 106.238 36.9495 106.625 36.2955C106.821 35.9685 107.044 35.6579 107.295 35.3582C107.459 35.1729 107.644 34.993 107.856 34.8404C107.856 34.1919 107.856 33.5434 107.845 32.9003C107.845 32.6115 107.845 32.3172 107.845 32.0284C107.458 32.4316 107.11 32.8622 106.794 33.3145C106.352 33.9848 105.954 34.6769 105.6 35.3963" fill="#FFB548"/>
<path id="Vector_47" d="M101.485 36.7696C101.022 37.5653 100.586 38.3773 100.166 39.1948C99.7414 40.0122 99.3381 40.8352 98.9566 41.6744C98.1937 43.3529 97.4852 45.0533 96.8312 46.7754C95.5233 50.2196 94.3298 53.7293 93.4524 57.3207C93.0164 59.1137 92.6567 60.9284 92.357 62.7487C92.0681 64.5743 91.8065 66.3945 91.7684 68.2475C91.6539 71.9642 92.1172 75.7354 93.0491 79.3704C93.9701 83.0163 95.5124 86.4824 97.0002 89.883C97.7468 91.5888 98.4771 93.2891 99.2455 94.9676C100.019 96.6462 100.837 98.2975 101.731 99.9106C103.197 102.526 104.821 105.055 106.902 107.257L106.924 105.126C106.63 104.908 106.347 104.674 106.074 104.423C105.763 104.118 105.464 103.802 105.18 103.469C104.913 103.131 104.63 102.799 104.39 102.439C103.393 101.028 102.592 99.5128 101.889 97.965C101.186 96.4173 100.608 94.8314 100.09 93.2292C99.567 91.627 99.1419 90.0029 98.8367 88.3516C98.21 85.0545 98.0193 81.692 97.5451 78.4058C97.3217 76.76 97.0547 75.1196 96.7876 73.4738C96.5206 71.828 96.2154 70.1876 95.9811 68.5145C95.8666 67.6807 95.7631 66.8142 95.7358 65.9477C95.7031 65.0866 95.714 64.2364 95.7467 63.3917C95.8012 61.6968 95.9974 60.0238 96.2045 58.3561C96.6296 55.0209 97.2127 51.7074 98.1065 48.4594C98.5534 46.8353 99.0602 45.2277 99.6488 43.6418C100.232 42.0559 100.891 40.4918 101.654 38.9659C101.845 38.5844 102.03 38.2029 102.248 37.8323C102.455 37.4618 102.662 37.0857 102.891 36.7206C103.109 36.3554 103.333 35.9849 103.578 35.6306L103.943 35.102L104.336 34.5843C104.842 33.8922 105.447 33.2545 106.074 32.6605C106.619 32.1864 107.213 31.7558 107.851 31.4343C107.851 30.5024 107.84 29.5759 107.829 28.644C105.235 30.9983 103.218 33.7995 101.496 36.7642" fill="#FFB548"/>
<path id="Vector_48" d="M110.75 86.2589C110.941 84.8474 111.159 83.4414 111.442 82.0408C112.004 79.2396 112.788 76.4439 113.143 73.5936C113.328 72.1713 113.431 70.7434 113.475 69.3101C113.497 68.5962 113.497 67.8768 113.47 67.1738C113.459 66.8196 113.431 66.4981 113.382 66.1438L113.235 65.0866C113.023 63.6696 112.772 62.2527 112.57 60.8357C112.347 59.4188 112.183 57.9964 111.993 56.5795C111.617 53.7456 111.197 50.9172 110.886 48.0833L109.998 39.5871C109.916 38.8841 109.845 38.1756 109.753 37.4726C109.655 36.7696 109.567 36.072 109.459 35.3745C109.339 34.6823 109.224 33.9848 109.05 33.3145C108.973 33.0038 108.881 32.6986 108.772 32.4043C108.772 32.5678 108.772 32.7259 108.772 32.8894C108.739 36.677 108.761 40.4645 108.772 44.2521C108.821 51.8273 108.941 59.4025 109.11 66.9776C109.268 74.5528 109.448 82.128 109.546 89.7031L109.589 94.1883C109.802 92.9566 109.982 91.7141 110.162 90.4716L110.75 86.2534V86.2589Z" fill="#FFB548"/>
<path id="Vector_49" d="M107.507 36.6769C107.317 37.3472 107.186 38.0393 107.061 38.7314C106.941 39.429 106.837 40.1266 106.734 40.8296C106.635 41.5326 106.554 42.2411 106.461 42.9441C106.118 45.7671 105.829 48.6064 105.507 51.4457C105.186 54.285 104.755 57.1135 104.379 59.9528C104.189 61.3752 104.025 62.7976 103.818 64.2091L103.529 66.3181C103.442 66.9612 103.42 67.686 103.387 68.3999C103.338 69.8332 103.317 71.2774 103.371 72.7161C103.426 74.1549 103.535 75.5882 103.72 77.016C104.074 79.8717 104.848 82.6783 105.393 85.4958C105.665 86.9019 105.878 88.3188 106.058 89.7357L106.603 93.9757C106.728 94.9457 106.859 95.9103 107.001 96.8749L107.071 89.7248C107.17 82.1497 107.349 74.5745 107.507 66.9993C107.676 59.4242 107.796 51.849 107.845 44.2738C107.856 41.4127 107.867 38.5461 107.862 35.685C107.862 35.6959 107.851 35.7068 107.845 35.7231C107.709 36.0338 107.611 36.3608 107.513 36.6987" fill="#FFB548"/>
<path id="Vector_50" d="M115.159 96.9677C116.107 95.3873 116.974 93.7523 117.786 92.0902C118.587 90.4225 119.361 88.7386 120.129 87.0437C121.666 83.6594 123.208 80.1933 124.08 76.5256C124.947 72.8743 125.29 69.0649 124.843 65.3809C124.636 63.5334 124.276 61.6968 123.906 59.8712C123.53 58.0455 123.121 56.2307 122.652 54.4269C122.178 52.623 121.666 50.8355 121.088 49.0643C120.505 47.2986 119.917 45.5383 119.279 43.7944C118.652 42.0504 117.977 40.3174 117.257 38.6171C116.892 37.7669 116.516 36.9222 116.113 36.0884C115.922 35.6688 115.715 35.2546 115.508 34.8404C115.306 34.4208 115.094 34.012 114.87 33.6088C113.252 30.595 111.382 27.6958 108.832 25.3142C108.821 26.2352 108.81 27.1617 108.799 28.0827C109.426 28.4097 109.998 28.8511 110.516 29.3362C110.821 29.6413 111.115 29.9574 111.404 30.2844C111.671 30.6168 111.955 30.9547 112.194 31.309C112.696 32.0065 113.153 32.7314 113.573 33.478C113.993 34.2191 114.385 34.9767 114.75 35.7451C115.481 37.2819 116.091 38.8514 116.652 40.4428C117.208 42.0341 117.699 43.6418 118.124 45.2604C118.985 48.503 119.535 51.8055 119.987 55.119C120.456 58.427 120.718 61.7677 120.641 65.1411C120.625 65.9858 120.576 66.8469 120.494 67.6916C120.451 68.1112 120.402 68.5308 120.342 68.945C120.298 69.3647 120.227 69.7734 120.178 70.1876L119.492 75.1305C119.045 78.4167 118.821 81.7738 118.162 85.0654C117.835 86.7113 117.393 88.3298 116.838 89.9212C116.298 91.5125 115.671 93.0875 114.936 94.6134C114.2 96.1393 113.35 97.6326 112.309 99.0059C111.797 99.6926 111.202 100.341 110.565 100.924C110.276 101.175 109.971 101.404 109.66 101.622L109.687 104.227C110.527 103.371 111.317 102.477 112.047 101.546C113.175 100.085 114.205 98.5536 115.154 96.9732" fill="#FFB548"/>
<path id="Vector_51" d="M108.309 13.2538C91.4634 25.6139 80.5638 45.3202 80.5638 67.5226C80.5638 89.7249 91.4634 109.431 108.309 121.797C125.154 109.437 136.053 89.7249 136.053 67.5226C136.053 45.3202 125.154 25.6139 108.309 13.2538ZM109.736 108.576L109.775 112.44C109.78 113.246 109.137 113.9 108.33 113.911C108.025 113.911 107.736 113.824 107.502 113.66L107.486 113.649C103.802 111.159 100.505 108.14 97.6325 104.777C94.7659 101.409 92.3299 97.6925 90.308 93.7795C88.2861 89.8557 86.733 85.7084 85.6158 81.4467C84.4986 77.185 83.8773 72.787 83.8119 68.3727C83.6429 59.5387 85.9645 50.7101 90.3135 43.1185C94.5534 35.6633 100.673 29.396 107.774 24.8346C107.758 23.7337 107.742 22.6329 107.725 21.5375C107.725 21.2159 107.976 20.9544 108.298 20.9489C108.418 20.9489 108.532 20.9816 108.625 21.0416L108.641 21.0525C112.281 23.4503 115.573 26.3714 118.478 29.6358C121.377 32.9057 123.889 36.5243 125.966 40.3828C126.249 40.8514 126.473 41.3528 126.723 41.8433L127.443 43.3202C127.557 43.5709 127.688 43.8107 127.791 44.0613L128.108 44.8189L128.74 46.3393C129.557 48.3721 130.266 50.4594 130.822 52.5793C131.977 56.8192 132.625 61.2009 132.718 65.6043C132.941 74.422 130.658 83.2615 126.325 90.8694C122.271 98.0195 116.494 104.107 109.736 108.581" fill="#FFB548"/>
<path id="Vector_52" d="M106.886 108.254C105.655 107.524 104.521 106.608 103.491 105.606C102.085 104.254 100.87 102.717 99.7743 101.115C98.6843 99.5072 97.7252 97.8233 96.875 96.0957C96.0085 94.3681 95.2891 92.5806 94.7005 90.7549C93.5234 87.0927 92.8749 83.3051 92.1228 79.5829C91.7522 77.7191 91.3762 75.8607 91.0383 73.986C90.7004 72.1113 90.368 70.2311 90.1609 68.3073C90.1064 67.8278 90.0737 67.3427 90.0301 66.8577C90.0083 66.3727 89.9701 65.8877 89.9647 65.4026C89.9374 64.4326 89.9483 63.4571 90.0137 62.4925C90.1227 60.5578 90.3898 58.6395 90.7386 56.743C91.0819 54.841 91.5233 52.9608 92.0411 51.1024C92.5533 49.2386 93.1855 47.413 93.9158 45.62C94.6515 43.8325 95.4744 42.0776 96.4227 40.3882C96.8913 39.5435 97.3873 38.7042 97.905 37.8868C98.4282 37.0693 98.9895 36.2736 99.5672 35.4943C100.145 34.7096 100.766 33.9629 101.409 33.2327C102.052 32.5024 102.733 31.8048 103.458 31.1563C104.777 29.9574 106.238 28.8892 107.818 28.0936C107.807 27.1453 107.796 26.1916 107.78 25.2433C101.175 30.2898 95.6706 36.6987 91.9484 43.996C90.0192 47.7508 88.5859 51.7401 87.6703 55.8274C86.7602 59.9202 86.4005 64.1219 86.5586 68.2965C86.9183 76.6509 89.2508 84.9073 93.1038 92.3353C95.0112 96.0575 97.3273 99.5726 100.009 102.772C102.069 105.251 104.368 107.535 106.881 109.54L106.892 108.26L106.886 108.254Z" fill="#FFB548"/>
<path id="Vector_53" d="M123.878 41.4508C122.02 37.6687 119.78 34.061 117.132 30.7639C114.723 27.7501 111.96 25.0144 108.875 22.6819C108.864 23.374 108.853 24.0661 108.848 24.7637C110.418 25.5702 111.84 26.682 113.11 27.9245L113.633 28.4368L114.134 28.9709C114.472 29.3251 114.783 29.7011 115.093 30.0772C115.41 30.4478 115.709 30.8347 116.004 31.2216C116.309 31.6031 116.587 32.0064 116.859 32.4042C117.137 32.8021 117.41 33.2053 117.671 33.6195C117.933 34.0283 118.2 34.437 118.44 34.8566C118.936 35.6904 119.393 36.5461 119.846 37.4017C120.75 39.1183 121.524 40.895 122.233 42.6934C123.633 46.2957 124.631 50.0342 125.377 53.8109C125.753 55.702 126.064 57.6039 126.255 59.5223C126.451 61.4406 126.505 63.3807 126.467 65.3153C126.434 67.2555 126.211 69.1792 125.955 71.0758C125.693 72.9723 125.366 74.8524 125.023 76.7272C124.32 80.4711 123.666 84.2805 122.429 87.9482C121.808 89.7793 121.045 91.5614 120.134 93.2726C119.241 94.9948 118.227 96.6569 117.083 98.2319C115.938 99.8069 114.663 101.3 113.213 102.608C112.14 103.589 110.973 104.483 109.715 105.202L109.742 108.014C115.922 103.044 121.105 96.9185 124.669 89.9592C126.603 86.2097 128.048 82.2314 128.99 78.1441L129.328 76.6073C129.394 76.3511 129.432 76.095 129.47 75.8334L129.59 75.0541L129.824 73.5009C129.906 72.9832 129.922 72.46 129.977 71.9368L130.118 70.3727C130.167 69.8496 130.157 69.3264 130.178 68.8032L130.222 67.2337C130.238 66.7105 130.189 66.1873 130.178 65.6641C129.868 57.2878 127.601 49.0042 123.895 41.4454" fill="#FFB548"/>
</g>
<defs>
<clipPath id="clip0_0_4">
<rect width="136.053" height="135.634" fill="white"/>
</clipPath>
</defs>
</svg>
