<svg preserveAspectRatio="none" width="100%" height="100%" overflow="visible" style="display: block;" viewBox="0 0 56.1266 28.4163" fill="none" xmlns="http://www.w3.org/2000/svg">
<g id="Frame 52">
<path id="Vector" d="M30.972 14.9475C30.7711 14.9363 30.5674 14.9224 30.3665 14.9056C30.2297 15.1149 30.0846 15.3186 29.9368 15.5195C29.6466 15.9101 29.3396 16.2813 29.0188 16.6384C28.6979 16.9956 28.3686 17.3388 28.0226 17.6708C27.6822 18.0056 27.3223 18.3182 26.926 18.5916C26.142 19.1441 25.2407 19.571 24.4957 20.1681C23.7479 20.7624 23.0978 21.4656 22.5062 22.2329C22.2077 22.6124 21.9119 22.9975 21.5966 23.3602C21.2841 23.7257 20.9493 24.0661 20.6172 24.4121C19.9531 25.1013 19.2946 25.7933 18.5664 26.41C18.3627 26.583 18.1562 26.7504 17.9441 26.9178C19.7495 27.4675 21.6161 27.8721 23.5303 28.1232C23.5414 28.1092 23.5526 28.0953 23.5666 28.0813C23.9098 27.6991 24.2641 27.3335 24.6296 26.9764C24.9952 26.6192 25.3774 26.2816 25.7988 25.9858C26.6331 25.3887 27.5901 24.9227 28.3826 24.2782C29.1806 23.6392 29.8726 22.8858 30.5088 22.0683C30.8296 21.6637 31.1477 21.2535 31.4826 20.8657C31.8174 20.475 32.1746 20.1095 32.5289 19.7412C33.2377 19.0046 33.9436 18.2624 34.7193 17.6011C35.1071 17.269 35.5034 16.9481 35.9107 16.6384C36.3153 16.3259 36.7311 16.0246 37.1552 15.7344C37.4231 15.553 37.6937 15.3744 37.9672 15.1986C36.6027 15.1847 35.2383 15.1345 33.8738 15.0842C32.9056 15.048 31.9346 15.0228 30.9636 14.9531" fill="#FFEBCE"/>
<path id="Vector_2" d="M14.8442 7.81852C15.6366 8.46308 16.5909 8.92905 17.428 9.52617C17.8493 9.82194 18.2316 10.1596 18.5971 10.5139C18.9627 10.8711 19.3198 11.2366 19.6602 11.6189C20.0034 12.0011 20.3327 12.3974 20.6424 12.8131C20.8907 13.1507 21.1335 13.4967 21.3511 13.8678C21.6497 13.8874 21.9455 13.9013 22.244 13.9097C23.215 13.9404 24.1833 13.932 25.1543 13.8957C26.1253 13.8623 27.0935 13.7813 28.0645 13.7004C28.4887 13.6642 28.9156 13.6251 29.3397 13.5888C28.8542 13.3014 28.3854 13.0001 27.925 12.6848C27.5009 12.3946 27.0852 12.0932 26.6806 11.7807C26.2732 11.471 25.8742 11.1501 25.4891 10.8181C24.7134 10.154 24.0075 9.41456 23.2987 8.67793C22.9444 8.30961 22.5872 7.94408 22.2524 7.55344C21.9176 7.1656 21.5995 6.75542 21.2786 6.35083C20.6424 5.53328 19.9476 4.77991 19.1524 4.14093C18.36 3.49638 17.4057 3.0304 16.5686 2.43328C16.4207 2.33004 16.2812 2.22122 16.1417 2.10682C14.554 2.6872 13.0194 3.38198 11.5461 4.17721C11.6131 4.24975 11.68 4.32509 11.7442 4.40043C12.079 4.78828 12.3971 5.19845 12.718 5.60304C13.3542 6.42059 14.049 7.17397 14.8442 7.81294" fill="#FFEBCE"/>
<path id="Vector_3" d="M35.964 11.7303C35.5734 11.4011 35.2023 11.0523 34.8674 10.6617C34.1922 9.88875 33.6369 8.98191 32.917 8.25643C32.2027 7.52538 31.3852 6.90594 30.5118 6.35346C30.0765 6.07165 29.6385 5.7982 29.2199 5.49964C28.7986 5.20387 28.4024 4.88299 28.0006 4.56769C27.197 3.93429 26.3934 3.30369 25.6595 2.59496C25.2912 2.24059 24.934 1.87786 24.5853 1.50117C24.2365 1.12727 23.8961 0.742215 23.564 0.348786C23.5501 0.332044 23.5389 0.318093 23.525 0.301351C21.5634 0.558057 19.652 0.976599 17.8049 1.54582C18.3908 2.26013 18.9043 3.05536 19.546 3.70549C20.2603 4.43654 21.0779 5.05599 21.9512 5.60846C22.3865 5.89028 22.8246 6.16373 23.2431 6.46229C23.6645 6.75805 24.0607 7.07894 24.4625 7.39424C25.2661 8.02763 26.0697 8.65823 26.8035 9.36697C27.1718 9.72133 27.529 10.0841 27.8778 10.4608C28.2266 10.8347 28.567 11.2197 28.899 11.6131C29.4041 12.2186 29.8952 12.8409 30.3416 13.5133C30.5509 13.4994 30.7601 13.4826 30.9694 13.4715C31.9404 13.4017 32.9087 13.3766 33.8797 13.3403C35.2357 13.2901 36.5918 13.2427 37.9507 13.2259C37.6856 13.0501 37.4233 12.8716 37.1666 12.6818C36.7537 12.3777 36.3547 12.0596 35.964 11.7303Z" fill="#FFEBCE"/>
<path id="Vector_4" d="M34.895 25.824C35.6289 25.1152 36.4353 24.4846 37.2389 23.8512C37.6407 23.5331 38.0369 23.2123 38.4582 22.9193C38.8768 22.6235 39.3148 22.3473 39.7501 22.0655C40.6263 21.5102 41.441 20.8935 42.1553 20.1625C42.8724 19.437 43.4305 18.5302 44.1057 17.7573C44.4406 17.3666 44.8117 17.0178 45.2023 16.6886C45.593 16.3593 45.992 16.0385 46.4049 15.7371C46.8179 15.433 47.2448 15.1428 47.6885 14.8749C47.7694 14.8275 47.8503 14.78 47.9312 14.7326C47.1276 14.8107 46.3212 14.8777 45.5176 14.9391C43.5784 15.0786 41.6391 15.1623 39.6999 15.193C39.5939 15.193 39.4878 15.193 39.379 15.1958C38.9884 15.7566 38.5698 16.2896 38.1373 16.8058C37.8053 17.1992 37.4677 17.5843 37.1161 17.9582C36.7673 18.3349 36.4102 18.7004 36.0418 19.052C35.308 19.7607 34.5016 20.3913 33.7008 21.0247C33.299 21.3428 32.9028 21.6637 32.4814 21.9566C32.0629 22.2524 31.6248 22.5286 31.1895 22.8105C30.3162 23.3657 29.4986 23.9824 28.7843 24.7134C28.0672 25.4417 27.5092 26.3457 26.8339 27.1186C26.4991 27.5093 26.128 27.8581 25.7373 28.1873C25.6815 28.2348 25.6257 28.2794 25.5699 28.324C26.3931 28.3826 27.2246 28.4161 28.0616 28.4161C29.6633 28.4161 31.237 28.3045 32.78 28.0925C32.7856 28.0841 32.7912 28.0785 32.7995 28.0701C33.1316 27.6767 33.4692 27.2916 33.8208 26.9177C34.1668 26.5411 34.5239 26.1755 34.895 25.824Z" fill="#FFEBCE"/>
<path id="Vector_5" d="M25.6678 0.0866779C25.7068 0.117371 25.7487 0.145274 25.7878 0.175967C26.1951 0.485688 26.5941 0.80657 26.9792 1.13861C27.7549 1.8027 28.4608 2.54212 29.1696 3.27876C29.5239 3.64707 29.8811 4.0126 30.2159 4.40324C30.5508 4.79109 30.8689 5.20126 31.1897 5.60585C31.8259 6.4234 32.5207 7.17678 33.3159 7.81575C34.1084 8.4603 35.0626 8.92628 35.8997 9.5234C36.3211 9.81917 36.7033 10.1568 37.0689 10.5139C37.4344 10.8683 37.7915 11.2366 38.1319 11.6189C38.4752 12.0012 38.8044 12.3974 39.1141 12.8131C39.2146 12.9471 39.3122 13.0838 39.4071 13.2205C39.5048 13.2205 39.6024 13.2205 39.7001 13.2205C41.6393 13.2512 43.5786 13.3377 45.5178 13.4772C46.3409 13.5414 47.1641 13.6084 47.9872 13.6893C47.4403 13.374 46.913 13.0364 46.3968 12.6848C45.9726 12.3946 45.5569 12.0932 45.1523 11.7807C44.7449 11.471 44.3459 11.1501 43.9581 10.8181C43.1824 10.154 42.4764 9.41458 41.7677 8.67795C41.4133 8.30963 41.0562 7.9441 40.7213 7.55346C40.3865 7.16561 40.0684 6.75544 39.7475 6.35085C39.1113 5.5333 38.4166 4.77993 37.6213 4.14095C36.8289 3.4964 35.8746 3.03042 35.0375 2.4333C34.6162 2.13753 34.2339 1.79991 33.8684 1.44275C33.5029 1.08839 33.1457 0.720071 32.8053 0.337803C32.8025 0.335013 32.7969 0.329432 32.7941 0.323852C31.2455 0.11179 29.6662 0.000179291 28.0618 0.000179291C27.2554 0.000179291 26.4574 0.0308723 25.6678 0.0838876" fill="#FFEBCE"/>
<path id="Vector_6" d="M7.15986 17.7544C7.49469 17.3638 7.8658 17.015 8.25643 16.6857C8.64707 16.3565 9.04608 16.0356 9.45904 15.7342C9.8441 15.4496 10.2431 15.1818 10.6561 14.9251C10.6393 14.9251 10.6226 14.9251 10.6058 14.9251C9.63483 14.872 8.6666 14.7995 7.69559 14.7018C6.72736 14.6014 5.75634 14.4814 4.78533 14.3C4.7351 14.2917 4.70162 14.2414 4.70999 14.1912C4.71836 14.1522 4.74905 14.1243 4.78533 14.1159C5.75634 13.9345 6.72457 13.8145 7.69559 13.7141C8.66381 13.6136 9.63483 13.5439 10.6058 13.4909C10.6338 13.4909 10.6589 13.4909 10.6868 13.4881C10.2654 13.2342 9.85526 12.9635 9.45067 12.6901C9.02655 12.3971 8.6108 12.0985 8.20621 11.786C7.79883 11.4763 7.39982 11.1554 7.01476 10.8234C6.28371 10.1983 5.61404 9.50355 4.94716 8.80877C3.11953 10.4299 1.45932 12.2408 0 14.2108C1.57372 16.3342 3.37903 18.2706 5.37408 19.9894C6.01584 19.2946 6.53762 18.4715 7.15986 17.7572" fill="#FFEBCE"/>
<path id="Vector_7" d="M11.8447 14.9809C11.7024 15.193 11.5546 15.3995 11.4067 15.6032C11.0942 16.0189 10.7649 16.4151 10.4245 16.7974C10.0841 17.1797 9.72692 17.548 9.3614 17.9024C8.99587 18.2595 8.6136 18.5943 8.19227 18.8929C7.44448 19.4259 6.6046 19.8556 5.86797 20.4025C7.34403 21.6246 8.91774 22.7268 10.578 23.695C11.1053 23.1955 11.588 22.6458 12.0429 22.0655C12.3637 21.6609 12.6818 21.2507 13.0167 20.8628C13.3515 20.4722 13.7086 20.1067 14.063 19.7384C14.7717 19.0017 15.4777 18.2595 16.2534 17.5982C16.6412 17.2662 17.0375 16.9453 17.4448 16.6356C17.8494 16.3231 18.2652 16.0217 18.6893 15.7315C19.2641 15.3381 19.8556 14.9614 20.4751 14.6154C19.1246 14.7298 17.7769 14.8972 16.4264 14.9781C15.4582 15.0395 14.4871 15.0507 13.5161 15.0284C12.9581 15.02 12.4028 15.0033 11.8447 14.9809Z" fill="#FFEBCE"/>
<path id="Vector_8" d="M36.07 1.29741C36.7453 2.07031 37.3006 2.97715 38.0205 3.70263C38.7348 4.43368 39.5523 5.05312 40.4257 5.6056C40.861 5.88741 41.299 6.16086 41.7176 6.45942C42.1389 6.75519 42.5351 7.07607 42.9369 7.39137C43.7405 8.02477 44.5441 8.65537 45.278 9.3641C45.6463 9.71568 46.0034 10.0812 46.3522 10.4579C46.701 10.8318 47.0414 11.2168 47.3735 11.6103C47.9511 12.2995 48.5035 13.0166 48.9974 13.7979C49.7759 13.8871 50.5544 13.9876 51.3357 14.1159C51.3859 14.1243 51.4222 14.1718 51.4138 14.222C51.4082 14.2638 51.3747 14.2917 51.3357 14.3001C50.5655 14.4257 49.7926 14.5261 49.0225 14.6154C48.8133 14.9614 48.5844 15.2851 48.3501 15.6032C48.0403 16.0189 47.7083 16.4151 47.3679 16.7974C47.0247 17.1797 46.6703 17.548 46.3048 17.9024C45.9393 18.2595 45.557 18.5943 45.1357 18.8901C44.3014 19.4872 43.3443 19.9532 42.5519 20.5978C41.7538 21.2367 41.0619 21.9901 40.4257 22.8077C40.1048 23.2123 39.7867 23.6224 39.4519 24.0103C39.117 24.4009 38.7599 24.7664 38.4055 25.1348C37.6968 25.8714 36.9908 26.6136 36.2151 27.2749C36.1231 27.3558 36.0254 27.4312 35.9333 27.5093C44.1367 25.6063 51.2408 20.7959 56.1266 14.2052C51.1822 7.53368 43.9637 2.68696 35.6348 0.831429C35.7854 0.979314 35.9305 1.13278 36.07 1.29462" fill="#FFEBCE"/>
<path id="Vector_9" d="M9.40862 10.4609C9.7574 10.8348 10.0978 11.2199 10.4299 11.6133C10.9154 12.1965 11.3897 12.7964 11.8222 13.4381C12.3858 13.4158 12.9523 13.3991 13.5159 13.3907C14.4841 13.3684 15.4552 13.3823 16.4262 13.4409C17.7571 13.5219 19.0881 13.6865 20.4218 13.8009C20.274 13.7172 20.1261 13.6335 19.981 13.5442C19.5373 13.2763 19.1104 12.9861 18.6975 12.682C18.2845 12.3778 17.8855 12.0598 17.4948 11.7305C17.1042 11.4012 16.7331 11.0525 16.3983 10.6618C15.723 9.88891 15.1678 8.98207 14.4479 8.2566C13.7336 7.52555 12.916 6.9089 12.0426 6.35363C11.6074 6.07181 11.1693 5.79837 10.7507 5.49981C10.5275 5.34355 10.3099 5.17892 10.095 5.01151C8.77802 5.80953 7.51681 6.68846 6.31699 7.64832C7.01177 8.19801 7.70097 8.75327 8.33715 9.36713C8.70547 9.7215 9.06263 10.0842 9.41141 10.4609" fill="#FFEBCE"/>
<path id="Vector_10" d="M18.6445 17.9557C18.2957 18.3324 17.9386 18.698 17.5702 19.0495C16.8336 19.7583 16.03 20.3889 15.2264 21.0223C14.8246 21.3403 14.4284 21.6612 14.0071 21.9542C13.5885 22.25 13.1504 22.5262 12.7152 22.808C12.1459 23.1708 11.599 23.5586 11.0912 23.9883C12.6733 24.8756 14.3307 25.6402 16.0523 26.2763C16.4541 25.8355 16.8671 25.4058 17.294 24.9928C17.9832 24.3315 18.7394 23.7484 19.4927 23.1596C19.8694 22.8666 20.2433 22.5681 20.6395 22.2946C21.033 22.0212 21.4459 21.7645 21.8561 21.5078C22.6792 20.9971 23.4466 20.4251 24.1162 19.7415C24.7887 19.0635 25.3049 18.2124 25.9355 17.487C26.248 17.1242 26.5968 16.795 26.9651 16.4936C27.3278 16.1839 27.7045 15.8909 28.0924 15.6091C28.4774 15.3301 28.8737 15.065 29.2894 14.8195C28.882 14.7832 28.4719 14.7469 28.0645 14.7134C27.0935 14.6325 26.1252 14.5544 25.1542 14.5181C24.186 14.4818 23.215 14.4735 22.244 14.5042C21.9398 14.5125 21.6357 14.5293 21.3343 14.546C20.8293 15.3524 20.2601 16.0918 19.6657 16.8006C19.3337 17.194 18.9961 17.5791 18.6445 17.9529" fill="#FFEBCE"/>
</g>
</svg>
