<svg width="143" height="42" viewBox="0 0 143 42" fill="none" xmlns="http://www.w3.org/2000/svg">
<g clip-path="url(#clip0_6257_93)">
<path d="M118.299 16.1609C117.242 16.1609 115.619 16.3645 114.034 16.871V31.1101C114.285 31.1508 114.526 31.1769 114.757 31.1915C114.988 31.2046 115.215 31.2111 115.439 31.2111C115.664 31.2111 115.891 31.2046 116.122 31.1915C116.353 31.1785 116.594 31.1508 116.845 31.1101V31.0987H116.858V26.874C116.858 26.874 117.635 27.0939 118.726 27.0939C121.447 27.0939 123.623 25.1379 123.623 21.5419C123.623 17.9459 121.55 16.1593 118.299 16.1593V16.1609ZM118.278 24.7649C117.851 24.7649 117.303 24.6917 116.856 24.4083V18.9003C116.99 18.7537 117.687 18.6218 118.244 18.6218C120.011 18.6218 120.78 19.7569 120.78 21.7064C120.78 23.1884 119.843 24.7649 118.28 24.7649H118.278Z" fill="white"/>
<path d="M55.7253 16.3907C54.9403 16.2392 54.0837 16.1627 53.1537 16.1627C52.2238 16.1627 51.3867 16.3109 50.6391 16.6089C49.8916 16.9053 49.2564 17.3141 48.7304 17.832C48.2043 18.3499 47.8004 18.959 47.5187 19.661C47.2369 20.3613 47.0952 21.1088 47.0952 21.9003C47.0952 22.6918 47.206 23.3596 47.4275 23.9915C47.6066 24.5045 47.8542 24.9605 48.1685 25.3628C48.2418 25.4573 48.3183 25.5485 48.3997 25.6364C48.8264 26.1022 49.3411 26.4637 49.9421 26.7227C50.543 26.9817 51.2336 27.0989 52.0104 27.0989C52.727 27.0989 53.3019 27.0159 53.7368 26.8253C54.1716 26.6348 54.5706 26.3872 54.9371 26.0826V27.2487C54.9371 27.2895 54.9338 27.3285 54.9322 27.3693C54.9273 27.5321 54.9094 27.6885 54.8817 27.8351C54.867 27.9002 54.8556 27.967 54.8377 28.0289C54.8377 28.0337 54.8345 28.0403 54.8328 28.0451C54.8117 28.1184 54.7872 28.1901 54.7612 28.2585C54.7595 28.265 54.7563 28.2699 54.753 28.2764C54.6651 28.493 54.5462 28.6868 54.3964 28.8595C54.3882 28.8676 54.3801 28.8757 54.3719 28.8839C54.3377 28.9213 54.3003 28.9588 54.2628 28.9946C54.2107 29.0419 54.157 29.0858 54.0983 29.1282C53.6309 29.4604 53.0267 29.6396 52.2873 29.6673C52.2173 29.6705 52.1489 29.6738 52.0772 29.6738C51.6195 29.6738 51.1505 29.6298 50.6717 29.5419C50.1929 29.4539 49.7385 29.3301 49.3069 29.1673C49.1587 29.4376 49.0317 29.7601 48.9225 30.1379C48.8248 30.4799 48.7678 30.8431 48.7483 31.2291C48.7466 31.2698 48.7418 31.3105 48.7418 31.3513C49.7922 31.7552 50.9779 31.9571 52.2987 31.9571C52.328 31.9571 52.3557 31.9571 52.385 31.9571C52.4273 31.9571 52.4681 31.9571 52.5104 31.9571C53.2417 31.9571 53.9192 31.8545 54.5446 31.6493C54.8915 31.5353 55.209 31.3887 55.5055 31.2161C55.595 31.164 55.6846 31.1086 55.7693 31.0516C55.797 31.0337 55.823 31.0141 55.8507 30.9946C55.9077 30.9539 55.9631 30.9132 56.0168 30.8708C56.038 30.8545 56.0576 30.8382 56.0771 30.822C56.108 30.7975 56.1374 30.7731 56.1683 30.7487C56.1716 30.7454 56.1732 30.7438 56.1764 30.7405C56.2888 30.6428 56.3947 30.5418 56.494 30.4343C56.5299 30.3953 56.5624 30.3545 56.5966 30.3155C56.6129 30.2975 56.6276 30.2796 56.6439 30.2617C56.6813 30.2161 56.7188 30.1673 56.7546 30.12C56.7628 30.1086 56.7725 30.0972 56.7823 30.0842C56.9598 29.8415 57.1145 29.5761 57.2432 29.2878C57.5022 28.708 57.6324 28.0451 57.6324 27.2992V16.8776C57.1439 16.7099 56.5087 16.5503 55.7237 16.3972L55.7253 16.3907ZM54.3768 23.884C54.3214 23.9524 54.2612 24.0159 54.1928 24.0729C53.7987 24.4019 53.2156 24.5664 52.442 24.5664C51.9046 24.5664 51.4599 24.4622 51.1082 24.2553C50.8964 24.1315 50.7189 23.9703 50.574 23.7716C50.2124 23.2765 50.0219 22.6707 49.9991 21.9622C49.9991 21.9134 49.9942 21.8661 49.9942 21.8173C49.9942 21.402 50.0626 21.0046 50.1978 20.6251C50.3329 20.2456 50.5381 19.9134 50.8101 19.6268C51.0821 19.3401 51.4111 19.1105 51.7987 18.9395C52.1847 18.7685 52.6358 18.6822 53.1521 18.6822C53.6097 18.6822 53.9469 18.7001 54.1618 18.7359C54.3768 18.7717 54.5837 18.8255 54.7856 18.8971V22.5062C54.7856 23.099 54.6488 23.5566 54.3784 23.8856L54.3768 23.884Z" fill="white"/>
<path d="M59.1142 16.3433C59.5995 16.2619 60.0767 16.2228 60.549 16.2228C61.0213 16.2228 61.4985 16.2635 61.9838 16.3433V21.8823C61.9838 22.4344 62.0278 22.8904 62.1157 23.2471C62.2037 23.6037 62.3389 23.8871 62.5196 24.0956C62.7021 24.3041 62.9268 24.4523 63.1972 24.5402C63.4659 24.6282 63.7835 24.6721 64.1466 24.6721C64.645 24.6721 65.0636 24.6249 65.3991 24.5304V16.3433C65.8844 16.2619 66.3551 16.2228 66.8143 16.2228C67.2736 16.2228 67.7638 16.2635 68.2492 16.3433V26.3887C67.8176 26.5369 67.2492 26.6819 66.5407 26.8235C65.8339 26.9652 65.0961 27.0353 64.3274 27.0353C63.6401 27.0353 62.9805 26.9815 62.347 26.874C61.7135 26.7665 61.1581 26.5369 60.6793 26.1868C60.2005 25.8366 59.821 25.3252 59.5376 24.651C59.2542 23.9767 59.1125 23.081 59.1125 21.9621V16.3433H59.1142Z" fill="white"/>
<path d="M75.5507 19.9817C75.5507 19.6576 75.497 19.3954 75.3895 19.1934C75.282 18.9915 75.1338 18.8335 74.9449 18.7178C74.756 18.6038 74.5231 18.5257 74.2478 18.485C73.971 18.4442 73.6648 18.4247 73.3276 18.4247C72.5996 18.4247 71.8244 18.6152 71.0036 18.8986C70.8147 18.5485 70.673 18.2179 70.5785 17.9084C70.4841 17.599 70.4368 17.2276 70.4368 16.7961C71.0296 16.5941 71.6225 16.3954 72.2153 16.301C72.8081 16.2065 73.3602 16.1593 73.8732 16.1593C75.2739 16.1593 76.3699 16.4964 77.1582 17.169C77.9464 17.8433 78.3406 18.9214 78.3406 20.4035V26.4669C77.8683 26.6151 77.2966 26.7568 76.6224 26.8919C75.9481 27.0271 75.1875 27.0939 74.339 27.0939C73.6517 27.0939 73.0215 27.0336 72.4498 26.9115C71.8765 26.791 71.3847 26.5874 70.9743 26.3056C70.5639 26.0222 70.2463 25.6591 70.0248 25.2144C69.8017 24.7698 69.6909 24.2242 69.6909 23.5777C69.6909 22.9311 69.8294 22.3888 70.1046 21.9507C70.3798 21.5126 70.7381 21.1624 71.1762 20.9002C71.6143 20.638 72.1029 20.4491 72.642 20.3334C73.1811 20.2194 73.7201 20.1624 74.2592 20.1624C74.6501 20.1624 75.0817 20.182 75.5524 20.2227V19.98L75.5507 19.9817ZM75.5507 22.0647C75.3895 22.037 75.2136 22.0142 75.0247 21.9946C74.8358 21.9751 74.668 21.9637 74.5198 21.9637C73.8602 21.9637 73.3374 22.0826 72.9531 22.3171C72.5687 22.5533 72.3765 22.9344 72.3765 23.4588C72.3765 23.8089 72.4498 24.0793 72.5996 24.2666C72.7479 24.4555 72.9254 24.5939 73.1355 24.6803C73.3439 24.7682 73.5671 24.8219 73.8032 24.8415C74.0394 24.861 74.2446 24.8724 74.4188 24.8724C74.6208 24.8724 74.8227 24.8561 75.0247 24.8219C75.2266 24.7877 75.4025 24.7584 75.5507 24.7307V22.0631V22.0647Z" fill="white"/>
<path d="M79.7751 16.4052C79.977 16.3645 80.1692 16.3351 80.3516 16.314C80.534 16.2928 80.7327 16.283 80.9477 16.283C81.1496 16.283 81.3483 16.2961 81.5438 16.3237C81.7392 16.3514 81.9314 16.384 82.1203 16.4247C82.161 16.4931 82.1985 16.5892 82.231 16.7179C82.2652 16.8465 82.2946 16.9801 82.3222 17.1218C82.3499 17.2635 82.3727 17.4052 82.3923 17.5468C82.4118 17.6885 82.4297 17.8058 82.4428 17.9003C82.7392 17.4833 83.1024 17.1087 83.5339 16.7781C83.9655 16.4475 84.5046 16.283 85.1512 16.283C85.2864 16.283 85.4411 16.2895 85.6153 16.3026C85.7912 16.3156 85.9183 16.3368 85.9997 16.3628C86.0274 16.498 86.0469 16.6527 86.0599 16.8286C86.073 17.0045 86.0795 17.1853 86.0795 17.3742C86.0795 17.6039 86.0697 17.853 86.0485 18.1218C86.029 18.3921 85.9915 18.6478 85.9378 18.8905C85.7896 18.8644 85.6251 18.8498 85.4427 18.8498H85.1088C84.8792 18.8498 84.6235 18.8726 84.3401 18.9198C84.0567 18.967 83.788 19.0908 83.5323 19.2944C83.2766 19.4963 83.0633 19.7992 82.8955 20.2048C82.7261 20.6087 82.6431 21.1754 82.6431 21.9034V26.8756C82.4004 26.9164 82.1578 26.9424 81.9151 26.9571C81.6724 26.9701 81.4363 26.9766 81.2083 26.9766C80.9803 26.9766 80.7457 26.9701 80.5112 26.9571C80.2751 26.944 80.0291 26.9164 79.7734 26.8756V16.4052H79.7751Z" fill="white"/>
<path d="M96.884 16.4052C97.0859 16.3645 97.2781 16.3351 97.4605 16.314C97.6429 16.2928 97.8416 16.283 98.0566 16.283C98.2585 16.283 98.4572 16.2961 98.6526 16.3237C98.8481 16.3514 99.0403 16.384 99.2292 16.4247C99.2699 16.4931 99.3074 16.5892 99.3399 16.7179C99.3741 16.8465 99.4034 16.9801 99.4311 17.1218C99.4588 17.2635 99.4816 17.4052 99.5012 17.5468C99.5207 17.6885 99.5386 17.8058 99.5517 17.9003C99.8481 17.4833 100.211 17.1087 100.643 16.7781C101.074 16.4475 101.613 16.283 102.26 16.283C102.395 16.283 102.55 16.2895 102.724 16.3026C102.9 16.3156 103.027 16.3368 103.109 16.3628C103.136 16.498 103.156 16.6527 103.169 16.8286C103.182 17.0045 103.188 17.1853 103.188 17.3742C103.188 17.6039 103.179 17.853 103.157 18.1218C103.138 18.3921 103.1 18.6478 103.047 18.8905C102.898 18.8644 102.734 18.8498 102.552 18.8498H102.218C101.988 18.8498 101.732 18.8726 101.449 18.9198C101.166 18.967 100.897 19.0908 100.641 19.2944C100.386 19.4963 100.172 19.7992 100.004 20.2048C99.835 20.6087 99.752 21.1754 99.752 21.9034V26.8756C99.5093 26.9164 99.2666 26.9424 99.024 26.9571C98.7813 26.9701 98.5452 26.9766 98.3171 26.9766C98.0891 26.9766 97.8546 26.9701 97.6201 26.9571C97.3839 26.944 97.138 26.9164 96.8823 26.8756V16.4052H96.884Z" fill="white"/>
<path d="M127.183 22.5093C127.237 23.3171 127.52 23.9034 128.031 24.2682C128.543 24.6314 129.217 24.8138 130.053 24.8138C130.51 24.8138 130.979 24.7698 131.458 24.6819C131.937 24.5939 132.391 24.4702 132.823 24.3073C132.971 24.5777 133.098 24.9001 133.207 25.278C133.315 25.6558 133.375 26.0597 133.39 26.4913C132.339 26.8952 131.154 27.0971 129.833 27.0971C128.862 27.0971 128.03 26.962 127.336 26.6932C126.642 26.4245 126.075 26.0499 125.637 25.5711C125.199 25.0923 124.875 24.5239 124.667 23.8627C124.458 23.2031 124.354 22.4816 124.354 21.6999C124.354 20.9181 124.461 20.2113 124.678 19.537C124.893 18.8628 125.214 18.2765 125.637 17.7781C126.062 17.2798 126.587 16.8856 127.214 16.5957C127.841 16.3058 128.571 16.1609 129.408 16.1609C130.136 16.1609 130.782 16.2896 131.347 16.5452C131.912 16.8009 132.395 17.1511 132.792 17.5957C133.189 18.0403 133.489 18.5696 133.691 19.182C133.893 19.796 133.994 20.4523 133.994 21.1526C133.994 21.4083 133.984 21.6608 133.963 21.91C133.943 22.1591 133.919 22.3578 133.893 22.506H127.183V22.5093ZM131.285 20.5077C131.258 19.8611 131.08 19.3384 130.75 18.941C130.419 18.5436 129.958 18.3449 129.365 18.3449C128.691 18.3449 128.18 18.5338 127.83 18.91C127.479 19.2879 127.271 19.8204 127.202 20.5077H131.285Z" fill="white"/>
<path d="M137.09 22.3073C136.336 22.0924 135.746 21.7715 135.321 21.3481C134.896 20.923 134.685 20.2862 134.685 19.4377C134.685 18.4133 135.051 17.612 135.786 17.0322C136.52 16.4524 137.52 16.1625 138.787 16.1625C139.313 16.1625 139.831 16.2098 140.344 16.3042C140.856 16.3987 141.375 16.5404 141.901 16.7293C141.873 17.0794 141.807 17.4443 141.699 17.8205C141.592 18.1983 141.463 18.5273 141.315 18.8107C140.991 18.6755 140.634 18.5582 140.243 18.4573C139.852 18.3563 139.442 18.3058 139.01 18.3058C138.553 18.3058 138.194 18.3758 137.939 18.5175C137.683 18.6592 137.554 18.8856 137.554 19.195C137.554 19.5045 137.645 19.6999 137.828 19.8221C138.01 19.9426 138.269 20.0582 138.606 20.1657L139.758 20.5093C140.136 20.6168 140.476 20.7487 140.779 20.9035C141.082 21.0582 141.341 21.2504 141.557 21.48C141.772 21.7096 141.942 21.993 142.062 22.3285C142.183 22.6656 142.245 23.0761 142.245 23.5614C142.245 24.0467 142.14 24.5255 141.932 24.9555C141.724 25.3871 141.419 25.76 141.022 26.0776C140.624 26.3952 140.142 26.6444 139.577 26.8252C139.012 27.0076 138.37 27.0988 137.657 27.0988C137.333 27.0988 137.036 27.089 136.768 27.0678C136.497 27.0483 136.238 27.0141 135.989 26.9668C135.74 26.9196 135.494 26.8626 135.251 26.7958C135.009 26.7291 134.747 26.6411 134.463 26.5336C134.491 26.1704 134.554 25.8024 134.655 25.4327C134.756 25.063 134.888 24.7014 135.049 24.3513C135.494 24.5272 135.916 24.6575 136.313 24.7454C136.711 24.8333 137.124 24.8773 137.556 24.8773C137.745 24.8773 137.95 24.861 138.173 24.8268C138.396 24.7926 138.601 24.7324 138.79 24.6444C138.979 24.5565 139.137 24.4425 139.266 24.3008C139.393 24.1591 139.458 23.9734 139.458 23.7454C139.458 23.4213 139.36 23.1901 139.165 23.0484C138.97 22.9067 138.696 22.7829 138.346 22.6738L137.093 22.3106L137.09 22.3073Z" fill="white"/>
<path d="M92.6547 19.9817C92.6547 19.6576 92.601 19.3954 92.4935 19.1934C92.386 18.9915 92.2378 18.8335 92.0489 18.7178C91.86 18.6038 91.6271 18.5257 91.3518 18.485C91.075 18.4442 90.7688 18.4247 90.4317 18.4247C89.7037 18.4247 88.9284 18.6152 88.1076 18.8986C87.9187 18.5485 87.777 18.2179 87.6825 17.9084C87.5881 17.599 87.5408 17.2276 87.5408 16.7961C88.1337 16.5941 88.7265 16.3954 89.3193 16.301C89.9121 16.2065 90.4642 16.1593 90.9772 16.1593C92.3779 16.1593 93.4739 16.4964 94.2622 17.169C95.0505 17.8433 95.4446 18.9214 95.4446 20.4035V26.4669C94.9723 26.6151 94.4006 26.7568 93.7264 26.8919C93.0521 27.0271 92.2915 27.0939 91.443 27.0939C90.7557 27.0939 90.1255 27.0336 89.5538 26.9115C88.9805 26.791 88.4887 26.5874 88.0783 26.3056C87.6679 26.0222 87.3503 25.6591 87.1288 25.2144C86.9057 24.7698 86.7949 24.2242 86.7949 23.5777C86.7949 22.9311 86.9334 22.3888 87.2086 21.9507C87.4838 21.5126 87.8421 21.1624 88.2802 20.9002C88.7183 20.638 89.2069 20.4491 89.746 20.3334C90.2851 20.2194 90.8241 20.1624 91.3632 20.1624C91.7541 20.1624 92.1857 20.182 92.6564 20.2227V19.98L92.6547 19.9817ZM92.6547 22.0647C92.4935 22.037 92.3176 22.0142 92.1287 21.9946C91.9398 21.9751 91.772 21.9637 91.6238 21.9637C90.9642 21.9637 90.4414 22.0826 90.0571 22.3171C89.6727 22.5533 89.4805 22.9344 89.4805 23.4588C89.4805 23.8089 89.5538 24.0793 89.7037 24.2666C89.8519 24.4555 90.0294 24.5939 90.2395 24.6803C90.4479 24.7682 90.6711 24.8219 90.9072 24.8415C91.1434 24.861 91.3486 24.8724 91.5228 24.8724C91.7248 24.8724 91.9267 24.8561 92.1287 24.8219C92.3306 24.7877 92.5065 24.7584 92.6547 24.7307V22.0631V22.0647Z" fill="white"/>
<path d="M109.765 19.9817C109.765 19.6576 109.711 19.3954 109.604 19.1934C109.496 18.9915 109.348 18.8335 109.159 18.7178C108.97 18.6038 108.737 18.5257 108.462 18.485C108.185 18.4442 107.879 18.4247 107.542 18.4247C106.814 18.4247 106.039 18.6152 105.218 18.8986C105.029 18.5485 104.887 18.2179 104.793 17.9084C104.698 17.599 104.651 17.2276 104.651 16.7961C105.244 16.5941 105.837 16.3954 106.43 16.301C107.022 16.2065 107.575 16.1593 108.088 16.1593C109.488 16.1593 110.584 16.4964 111.373 17.169C112.161 17.8433 112.555 18.9214 112.555 20.4035V26.4669C112.083 26.6151 111.511 26.7568 110.837 26.8919C110.162 27.0271 109.402 27.0939 108.553 27.0939C107.866 27.0939 107.236 27.0336 106.664 26.9115C106.091 26.791 105.599 26.5874 105.189 26.3056C104.778 26.0222 104.461 25.6591 104.239 25.2144C104.016 24.7698 103.905 24.2242 103.905 23.5777C103.905 22.9311 104.044 22.3888 104.319 21.9507C104.594 21.5126 104.952 21.1624 105.391 20.9002C105.829 20.638 106.317 20.4491 106.856 20.3334C107.395 20.2194 107.935 20.1624 108.474 20.1624C108.864 20.1624 109.296 20.182 109.767 20.2227V19.98L109.765 19.9817ZM109.765 22.0647C109.604 22.037 109.428 22.0142 109.239 21.9946C109.05 21.9751 108.882 21.9637 108.734 21.9637C108.075 21.9637 107.552 22.0826 107.167 22.3171C106.783 22.5533 106.591 22.9344 106.591 23.4588C106.591 23.8089 106.664 24.0793 106.814 24.2666C106.962 24.4555 107.14 24.5939 107.35 24.6803C107.558 24.7682 107.781 24.8219 108.018 24.8415C108.254 24.861 108.459 24.8724 108.633 24.8724C108.835 24.8724 109.037 24.8561 109.239 24.8219C109.441 24.7877 109.617 24.7584 109.765 24.7307V22.0631V22.0647Z" fill="white"/>
<path d="M20.6005 0C9.22293 0 0 9.22293 0 20.6005C0 31.9781 9.22293 41.2011 20.6005 41.2011C31.9781 41.2011 41.2011 31.9781 41.2011 20.6005C41.2011 9.22293 31.9781 0 20.6005 0ZM32.4944 31.2697C32.3739 34.2159 30.7762 36.8135 29.9847 37.5399C29.9179 37.6018 29.83 37.5529 29.8186 37.4666C29.1313 31.7404 24.0483 29.1688 22.4637 27.4945C20.3123 25.2226 20.1462 21.7846 22.3073 21.5142C22.9946 21.423 24.0076 21.2911 24.6949 21.1999C25.0597 21.151 25.4164 21.3285 25.6037 21.6461C26.0939 22.4783 26.5695 23.0223 27.1883 23.5109C27.3089 23.607 27.2274 23.8008 27.0743 23.778C26.0076 23.6249 25.2568 22.9555 24.9408 22.62C24.8496 22.5239 24.7112 22.4881 24.5842 22.5272C23.9962 22.7096 23.5712 22.8057 22.8936 23.0028C22.537 23.0793 22.4979 23.2194 22.607 23.436C22.607 23.4392 22.6103 23.4409 22.6119 23.4441C23.6444 25.3447 24.7943 26.6086 26.3952 27.6525C29.5401 29.7013 35.5188 28.6883 34.1735 25.4457C33.7924 24.5255 34.7989 24.3529 34.5155 23.4246C34.496 23.3594 34.395 23.3643 34.3364 23.3969C33.6784 23.7617 31.4195 24.2829 31.3544 23.6363C31.3055 23.1445 32.2892 23.4409 32.8169 23.0809C33.3609 22.7112 33.5823 22.4881 33.926 22.4735C34.1116 22.4653 34.1296 22.2308 33.8234 22.1005C32.9667 21.7487 32.097 21.3676 31.8723 20.9507C31.4879 20.2406 32.6312 19.4947 32.5921 20.3888C32.5693 20.9051 33.0775 21.1885 33.9195 20.6934C34.7305 20.2162 35.1931 20.2634 35.167 19.8172C35.1393 19.3449 34.3657 18.9426 33.496 18.2569C31.6768 16.8221 31.9358 16.1658 31.5612 15.985C31.1361 15.7798 30.5026 17.397 30.3935 17.7325C30.286 18.068 30.0319 18.1804 30.0498 17.7798C30.0433 16.5404 28.1851 16.9557 27.5841 17.3351C27.0059 17.6999 26.861 17.9491 27.1558 17.3693C27.6362 16.4312 28.7811 16.0062 29.4521 15.9247C29.8626 15.8743 30.0303 15.4866 28.975 15.5306C27.9196 15.5762 26.8056 16.2554 26.2356 16.8628C25.4539 17.6951 25.4115 17.84 25.6851 17.055C26.6281 14.3401 28.8675 14.3287 30.1297 14.5095C31.0547 14.6414 31.6996 14.4394 31.8755 14.1593C31.9065 14.1104 31.9049 14.0486 31.8755 13.9997C29.2339 9.53074 23.8529 8.54542 20.7308 10.6056C20.6673 10.648 20.5826 10.6007 20.5843 10.5258C20.6119 7.90048 18.8644 5.48034 14.8857 5.75558C14.7863 5.76209 14.7603 5.89727 14.8515 5.94124C15.77 6.3826 18.1918 7.84348 18.2309 11.0047C18.2309 11.1073 18.0924 11.1431 18.0452 11.0503C17.226 9.44117 13.5323 3.38755 6.35328 8.36301C6.27511 8.41676 6.31094 8.53891 6.4054 8.54053C7.68876 8.56171 12.6691 8.83043 14.2717 11.705C14.3205 11.7929 14.2196 11.889 14.1349 11.8353C12.9867 11.1024 8.806 8.96072 4.95592 13.7082C4.89566 13.7831 4.96732 13.8906 5.06015 13.8629C6.06827 13.5567 9.44931 12.7896 13.5355 14.6528C13.674 14.7163 13.6414 14.9215 13.4899 14.9378C12.7473 15.0225 11.433 15.2831 10.6398 16.0827C10.5926 16.1299 10.6056 16.2114 10.6659 16.2407C12.858 17.2993 14.7163 17.9117 16.7586 17.985C16.8645 17.9882 16.8938 18.1462 16.7912 18.1739C15.2619 18.5713 13.13 20.0924 13.4834 22.7748C13.5127 23.0011 13.7978 23.0842 13.9427 22.9083C14.4899 22.2438 15.63 20.9751 16.9263 20.1885C17.086 20.0908 17.2651 20.2813 17.156 20.4344C16.8596 20.8562 16.5192 21.4702 16.3514 22.2357C16.3189 22.3806 16.4948 22.4816 16.6023 22.379C17.3677 21.6526 18.2293 21.0777 19.0257 20.6494C19.3677 20.4654 19.6364 20.8399 19.467 21.1885C15.2782 29.7323 27.7942 30.6687 22.9702 39.7874C22.9344 39.8542 22.8301 39.8363 22.8008 39.7663C20.4979 34.623 17.9182 34.8738 17.5306 34.8966C17.4459 34.8966 17.2048 34.9895 16.8612 35.1458L10.3174 25.405C10.2946 25.3708 10.2864 25.3301 10.2929 25.291L10.4428 24.4066C10.4542 24.3382 10.4395 24.2666 10.4004 24.208L8.53728 21.4344C8.48353 21.3546 8.36139 21.3823 8.3451 21.4751L8.15455 22.5956C8.13989 22.6852 8.05195 22.7422 7.964 22.7226L6.8549 22.4767C6.76207 22.4555 6.69204 22.5598 6.74416 22.638L8.60731 25.4115C8.64639 25.4701 8.70665 25.5109 8.77506 25.5255L9.65126 25.7209C9.69035 25.7291 9.72618 25.7535 9.74735 25.7877L16.2342 35.4422C15.5062 35.7973 14.5795 36.2794 13.7082 36.7451L11.4623 33.4032C11.4395 33.369 11.4314 33.3283 11.4379 33.2892L11.5877 32.4048C11.5991 32.3364 11.5844 32.2648 11.5454 32.2062L9.6822 29.4326C9.62846 29.3528 9.50631 29.3805 9.49003 29.4733L9.29948 30.5938C9.28482 30.6834 9.19687 30.7404 9.10893 30.7208L7.99983 30.4749C7.907 30.4537 7.83697 30.558 7.88908 30.6362L9.75223 33.4097C9.79132 33.4683 9.85158 33.5091 9.91998 33.5237L10.7962 33.7191C10.8353 33.7273 10.8711 33.7517 10.8923 33.7859L13.1007 37.0725C12.0812 37.6262 11.2408 38.1034 11.0649 38.2353C3.89243 34.2875 0.555363 27.33 0.555363 20.6005C0.555363 9.54377 9.50468 0.579792 20.5549 0.555363C31.5938 0.530933 40.5252 9.34182 40.6441 20.3807C40.6897 24.5662 39.4503 28.4603 37.2989 31.6931C34.8136 31.3625 32.4944 31.2583 32.4944 31.2697Z" fill="white"/>
</g>
<defs>
<clipPath id="clip0_6257_93">
<rect width="142.245" height="41.2011" fill="white"/>
</clipPath>
</defs>
</svg>
