<svg width="168" height="502" viewBox="0 0 168 502" fill="none" xmlns="http://www.w3.org/2000/svg">
<path opacity="0.3" d="M51.9655 392.313C55.2388 385.691 57.9833 378.792 60.5264 371.792C63.0695 364.767 65.3608 357.666 67.5765 350.49C69.7419 343.314 71.9073 336.113 74.2238 328.912C78.8567 314.56 84.1695 300.132 86.9895 285.176C88.4247 277.723 89.4319 270.169 89.9355 262.591C90.1621 258.814 90.288 255.012 90.1621 251.285C90.1117 247.559 89.6585 243.883 89.1801 240.156C88.0974 232.703 86.6118 225.275 85.227 217.847C83.7666 210.42 82.4321 202.967 80.9214 195.564C77.8495 180.734 74.3245 166.054 70.9001 151.4C67.4758 136.746 63.8752 122.142 59.3933 107.866C58.2351 104.315 57.102 100.765 55.7927 97.2652C55.1884 95.5027 54.4331 93.8157 53.7784 92.0783C53.1489 90.3158 52.3432 88.6791 51.613 86.967C49.0196 81.3521 46.0736 75.8882 41.8939 71.3308C41.8436 75.6112 41.8184 79.9168 41.7932 84.1973C42.7248 84.9023 43.5306 85.7332 44.2356 86.5893C45.3686 87.9741 46.3506 89.4597 47.2067 90.9704C48.9189 94.0171 50.3793 97.1393 51.6382 100.312C52.9223 103.484 54.0806 106.682 55.0877 109.93C56.1201 113.153 57.102 116.401 57.9833 119.649C61.4832 132.692 64.0263 145.861 65.9399 159.08C67.8283 172.324 68.7096 185.643 69.4397 198.963C69.7923 205.636 70.17 212.283 70.17 218.955C70.2707 225.628 70.044 232.325 69.7923 239.048C69.6664 242.372 69.5657 245.796 69.188 249.296L68.0297 259.292C67.2995 265.914 66.6701 272.536 66.2924 279.183C65.4615 292.453 66.1917 305.924 65.3104 319.268C64.8823 325.941 64.0263 332.588 62.8177 339.185C61.6595 345.782 60.2494 352.354 58.5372 358.875C56.8251 365.396 54.8108 371.893 52.1418 378.213C50.8073 381.36 49.3217 384.507 47.4837 387.504C46.9297 388.41 46.3254 389.266 45.6708 390.122L45.7967 402.838C46.0233 402.535 46.2499 402.208 46.4765 401.906C48.4657 398.809 50.3289 395.662 51.9403 392.313" fill="#3F3F38"/>
<path opacity="0.3" d="M27.0651 102.277L25.8314 104.769L24.7235 107.338C23.943 109.025 23.2379 110.737 22.5581 112.474C21.8279 114.186 21.1984 115.949 20.5689 117.711C19.9143 119.449 19.31 121.211 18.7057 122.999C13.8965 137.15 10.019 151.703 6.46873 166.332C2.91849 180.961 -0.732463 195.64 -3.67841 210.471C-5.13879 217.873 -6.39776 225.326 -7.63153 232.729C-7.9085 234.592 -8.23583 236.43 -8.46244 238.294C-8.76459 240.157 -8.99117 241.97 -9.21778 243.833C-9.64582 247.484 -9.84728 251.135 -9.94799 254.912C-10.225 270.044 -8.78976 285.378 -5.81864 300.335C-2.87269 315.316 2.33937 329.819 6.82123 344.297C9.06216 351.549 11.1269 358.8 13.1664 366.052C15.2562 373.278 17.3712 380.505 19.7632 387.605C22.1552 394.706 24.6983 401.705 27.745 408.453C29.3564 411.978 31.119 415.453 33.2088 418.701L33.3347 406.036C32.806 405.281 32.3276 404.5 31.8743 403.72C30.0866 400.673 28.7018 397.526 27.4176 394.328C24.8746 387.958 22.961 381.436 21.2992 374.89C19.6625 368.343 18.3029 361.746 17.2202 355.124C16.0619 348.502 15.2562 341.855 14.8533 335.157C14.0476 321.762 14.8534 308.266 13.9973 294.972C13.6196 288.324 12.9901 281.702 12.2095 275.08C11.429 268.458 10.3715 261.861 9.41467 255.189C8.96145 251.865 8.38234 248.542 8.20609 244.865C8.00465 241.391 7.95428 238.042 7.95428 234.668C7.90392 227.945 8.28162 221.247 8.63412 214.575C9.36432 201.205 10.2959 187.835 12.2599 174.566C14.2491 161.296 16.8676 148.102 20.5438 135.06C21.4502 131.786 22.4826 128.564 23.5653 125.341C24.6228 122.118 25.8314 118.92 27.191 115.747C28.5003 112.575 30.0363 109.478 31.824 106.456C32.7304 104.946 33.7628 103.51 34.921 102.126C35.6764 101.269 36.5325 100.439 37.5144 99.7336C37.5144 96.7373 37.5144 93.741 37.4641 90.7698C37.4641 89.4354 37.4641 88.0757 37.4641 86.7412C35.6764 88.6045 34.0649 90.5936 32.6045 92.6835C30.565 95.7805 28.727 98.9782 27.0903 102.302" fill="#3F3F38"/>
<path opacity="0.3" d="M8.07943 108.646C5.93922 112.323 3.9249 116.074 1.98612 119.851C0.0221558 123.628 -1.84109 127.43 -3.60362 131.307C-7.12868 139.063 -10.402 146.918 -13.4235 154.875C-19.4664 170.788 -24.9806 187.003 -29.0344 203.596C-31.0488 211.88 -32.7106 220.265 -34.0954 228.675C-35.4299 237.11 -36.6385 245.519 -36.8147 254.08C-37.3435 271.252 -35.2033 288.676 -30.8977 305.471C-26.6424 322.315 -19.5167 338.329 -12.6429 354.041C-9.19335 361.922 -5.81938 369.778 -2.26914 377.533C1.30628 385.288 5.08313 392.917 9.21248 400.37C15.9856 412.456 23.489 424.139 33.1074 434.312L33.2081 424.467C31.8484 423.459 30.5391 422.377 29.2802 421.219C27.8449 419.809 26.4601 418.348 25.1508 416.812C23.917 415.251 22.6077 413.715 21.4998 412.053C16.8921 405.532 13.1908 398.532 9.9427 391.381C6.6946 384.231 4.02562 376.904 1.63361 369.501C-0.783569 362.098 -2.74754 354.595 -4.15757 346.966C-7.05315 331.732 -7.9344 316.197 -10.125 301.014C-11.1573 293.41 -12.3911 285.831 -13.6249 278.227C-14.8586 270.623 -16.2687 263.044 -17.3514 255.314C-17.8801 251.462 -18.3585 247.458 -18.4844 243.455C-18.6355 239.476 -18.5851 235.549 -18.4341 231.646C-18.1823 223.815 -17.2758 216.085 -16.319 208.38C-14.3551 192.971 -11.6609 177.662 -7.53154 162.655C-5.46686 155.152 -3.12521 147.724 -0.40588 140.397C2.28827 133.07 5.33492 125.844 8.85998 118.794C9.74124 117.031 10.5973 115.268 11.6045 113.556C12.5613 111.844 13.5181 110.107 14.5756 108.42C15.5828 106.733 16.6151 105.021 17.7482 103.384L19.4352 100.942L21.248 98.5496C23.5897 95.3519 26.3846 92.4059 29.2802 89.6614C31.798 87.4708 34.5425 85.4817 37.4885 83.9961C37.4885 79.6905 37.4382 75.4101 37.3878 71.1045C25.4026 81.9818 16.0864 94.9238 8.1298 108.621" fill="#3F3F38"/>
<path opacity="0.3" d="M50.8824 337.297C51.7636 330.776 52.7708 324.279 54.0801 317.808C56.6736 304.866 60.2993 291.95 61.936 278.781C62.792 272.209 63.2704 265.612 63.4719 258.99C63.5726 255.692 63.5726 252.368 63.4467 249.12C63.3964 247.483 63.2705 245.998 63.0438 244.361L62.364 239.477C61.382 232.93 60.2238 226.383 59.2922 219.837C58.2598 213.29 57.5045 206.719 56.6232 200.172C54.8858 187.079 52.9471 174.011 51.5119 160.918L47.4077 121.664C47.03 118.416 46.7027 115.143 46.2746 111.895C45.8214 108.646 45.4185 105.424 44.915 102.201C44.361 99.0029 43.8323 95.7799 43.0265 92.6829C42.674 91.2477 42.246 89.8377 41.7424 88.478C41.7424 89.2334 41.7424 89.9636 41.7424 90.719C41.5913 108.218 41.692 125.718 41.7424 143.217C41.969 178.216 42.523 213.215 43.3035 248.214C44.0337 283.212 44.8646 318.211 45.3178 353.21L45.5192 373.932C46.5012 368.242 47.3321 362.501 48.163 356.76L50.8824 337.272V337.297Z" fill="#3F3F38"/>
<path opacity="0.3" d="M35.902 108.218C35.0207 111.315 34.4164 114.513 33.8373 117.711C33.2834 120.934 32.805 124.157 32.3266 127.405C31.8734 130.653 31.4957 133.926 31.0676 137.174C29.4813 150.217 28.1469 163.335 26.6613 176.453C25.1757 189.572 23.1866 202.64 21.4492 215.758C20.568 222.33 19.8126 228.901 18.8558 235.423L17.5213 245.167C17.1184 248.138 17.0177 251.487 16.8667 254.785C16.6401 261.407 16.5393 268.08 16.7911 274.727C17.0429 281.374 17.5465 287.996 18.4026 294.593C20.0392 307.787 23.6146 320.754 26.1325 333.772C27.3915 340.268 28.3735 346.815 29.2044 353.361L31.7223 372.95C32.3014 377.432 32.9057 381.889 33.5603 386.346L33.8877 353.311C34.3409 318.312 35.1718 283.313 35.902 248.314C36.6825 213.315 37.2365 178.317 37.4631 143.318C37.5134 130.099 37.5638 116.855 37.5386 103.636C37.5386 103.686 37.4883 103.736 37.4631 103.812C36.8336 105.247 36.3804 106.758 35.9272 108.319" fill="#3F3F38"/>
<path opacity="0.3" d="M71.254 386.773C75.6352 379.471 79.6386 371.918 83.3903 364.238C87.0916 356.533 90.667 348.753 94.2173 340.922C101.318 325.286 108.443 309.272 112.472 292.327C116.476 275.457 118.062 257.857 115.997 240.836C115.04 232.3 113.379 223.815 111.666 215.38C109.929 206.945 108.041 198.56 105.875 190.226C103.685 181.892 101.318 173.633 98.6488 165.45C95.9546 157.292 93.2353 149.159 90.2893 141.102C87.3938 133.044 84.2716 125.038 80.9479 117.182C79.261 113.254 77.5236 109.351 75.6603 105.499C74.7791 103.56 73.8223 101.646 72.8655 99.7326C71.9338 97.7938 70.9519 95.9054 69.9195 94.0422C62.4414 80.1182 53.805 66.723 42.0212 55.7197C41.9708 59.975 41.9205 64.2554 41.8701 68.5107C44.7657 70.0214 47.4095 72.0609 49.8015 74.3018C51.2115 75.7119 52.5712 77.1722 53.9057 78.683C55.1395 80.2189 56.4488 81.78 57.5566 83.4166C59.8731 86.6395 61.9881 89.9884 63.9269 93.4379C65.8657 96.8622 67.6786 100.362 69.3656 103.912C72.7396 111.013 75.5596 118.264 78.1531 125.617C80.7213 132.969 82.9874 140.397 84.9514 147.875C88.9297 162.856 91.4728 178.115 93.5626 193.424C95.728 208.707 96.9366 224.142 96.5841 239.728C96.5086 243.631 96.282 247.609 95.9043 251.512C95.7029 253.45 95.4762 255.389 95.1993 257.303C94.9978 259.242 94.6705 261.13 94.4439 263.044L91.2713 285.881C89.2066 301.064 88.1743 316.574 85.1277 331.782C83.6169 339.386 81.5774 346.865 79.0092 354.217C76.5164 361.569 73.6208 368.846 70.2217 375.896C66.8225 382.946 62.8946 389.845 58.0854 396.19C55.7186 399.363 52.9741 402.359 50.0281 405.053C48.6936 406.212 47.2836 407.269 45.8484 408.276L45.9743 420.312C49.8519 416.359 53.5028 412.229 56.8768 407.924C62.0889 401.176 66.8477 394.1 71.2288 386.798" fill="#3F3F38"/>
<path opacity="0.3" d="M39.6048 0C-38.2235 57.106 -88.5815 148.153 -88.5815 250.733C-88.5815 353.312 -38.2235 444.359 39.6048 501.49C117.433 444.384 167.791 353.312 167.791 250.733C167.791 148.153 117.433 57.106 39.6048 0ZM46.2017 440.406L46.3779 458.258C46.4031 461.984 43.432 465.006 39.7055 465.056C38.2955 465.056 36.961 464.653 35.8783 463.898L35.8027 463.848C18.7817 452.341 3.54842 438.392 -9.72091 422.856C-22.9651 407.296 -34.2201 390.124 -43.5615 372.045C-52.9029 353.916 -60.0789 334.755 -65.2406 315.065C-70.4023 295.375 -73.2727 275.055 -73.5749 254.66C-74.3554 213.845 -63.6291 173.055 -43.5363 137.981C-23.947 103.536 4.32897 74.5802 37.1372 53.5054C37.0617 48.4192 36.9862 43.3331 36.9106 38.2721C36.9106 36.7865 38.0689 35.5779 39.5544 35.5528C40.1084 35.5528 40.6371 35.7038 41.0652 35.9808L41.1407 36.0312C57.9603 47.1099 73.1684 60.6059 86.5888 75.6881C99.984 90.7955 111.592 107.514 121.185 125.341C122.494 127.506 123.526 129.823 124.685 132.089L128.008 138.913C128.537 140.071 129.141 141.179 129.62 142.337L131.08 145.837L134.001 152.862C137.778 162.254 141.051 171.897 143.619 181.692C148.957 201.281 151.954 221.525 152.382 241.87C153.414 282.609 142.864 323.45 122.847 358.599C104.113 391.634 77.4236 419.759 46.2017 440.431" fill="#3F3F38"/>
<path opacity="0.3" d="M33.0321 438.921C27.3417 435.547 22.1044 431.317 17.3456 426.684C10.8494 420.44 5.23447 413.339 0.173489 405.936C-4.86231 398.509 -9.29384 390.728 -13.2218 382.747C-17.2252 374.765 -20.5488 366.506 -23.2682 358.071C-28.7068 341.151 -31.7032 323.651 -35.1779 306.454C-36.89 297.843 -38.6274 289.257 -40.1885 280.595C-41.7496 271.934 -43.2855 263.247 -44.2423 254.359C-44.4941 252.143 -44.6452 249.902 -44.8466 247.661C-44.9473 245.42 -45.1235 243.179 -45.1487 240.938C-45.2746 236.457 -45.2243 231.949 -44.9221 227.493C-44.4185 218.554 -43.1848 209.691 -41.5733 200.929C-39.987 192.141 -37.9475 183.455 -35.5555 174.869C-33.1887 166.257 -30.2679 157.822 -26.8939 149.539C-23.4948 141.28 -19.6928 133.172 -15.3116 125.367C-13.1462 121.464 -10.8549 117.586 -8.46293 113.81C-6.04575 110.033 -3.4523 106.357 -0.783325 102.756C1.88565 99.1302 4.75607 95.6807 7.72719 92.3067C10.6983 88.9327 13.8457 85.7098 17.1945 82.7135C23.2878 77.1741 30.0358 72.239 37.3377 68.5629C37.2873 64.1818 37.237 59.7754 37.1615 55.3943C6.6445 78.71 -18.7863 108.321 -35.9836 142.035C-44.8969 159.384 -51.519 177.815 -55.7491 196.699C-59.954 215.608 -61.6158 235.021 -60.8856 254.308C-59.2238 292.908 -48.4472 331.054 -30.6456 365.373C-21.833 382.57 -11.1319 398.811 1.25617 413.591C10.7738 425.047 21.3994 435.597 33.0069 444.863L33.0573 438.946L33.0321 438.921Z" fill="#3F3F38"/>
<path opacity="0.3" d="M111.539 130.276C102.953 112.802 92.6048 96.1333 80.3678 80.9C69.2387 66.976 56.4729 54.3362 42.2216 43.5596C42.1712 46.7573 42.1209 49.955 42.0957 53.1779C49.3473 56.9044 55.919 62.041 61.7857 67.7818L64.2029 70.1486L66.5193 72.6161C68.0804 74.2528 69.5157 75.9901 70.9509 77.7275C72.4112 79.4397 73.7961 81.2274 75.1558 83.0151C76.5658 84.7776 77.8499 86.6408 79.1088 88.4789C80.393 90.317 81.6519 92.1802 82.8605 94.0938C84.0691 95.9823 85.3029 97.8707 86.4108 99.8095C88.7021 103.662 90.8171 107.615 92.907 111.568C97.0867 119.499 100.662 127.708 103.935 136.017C110.406 152.66 115.014 169.933 118.464 187.382C120.201 196.119 121.636 204.907 122.517 213.77C123.424 222.633 123.676 231.596 123.499 240.535C123.348 249.499 122.316 258.387 121.133 267.149C119.924 275.911 118.413 284.598 116.827 293.26C113.579 310.558 110.557 328.158 104.842 345.103C101.971 353.564 98.4463 361.797 94.2414 369.703C90.1121 377.66 85.4288 385.339 80.1412 392.616C74.8536 399.893 68.9617 406.792 62.2641 412.835C57.3038 417.367 51.9155 421.496 46.0992 424.82L46.2251 437.812C74.778 414.849 98.7233 386.548 115.19 354.394C124.129 337.071 130.801 318.691 135.157 299.806L136.718 292.706C137.021 291.522 137.197 290.339 137.373 289.13L137.927 285.53L139.01 278.354C139.387 275.962 139.463 273.545 139.715 271.127L140.369 263.901C140.596 261.484 140.546 259.067 140.646 256.65L140.848 249.398C140.923 246.981 140.697 244.564 140.646 242.146C139.211 203.446 128.737 165.174 111.615 130.251" fill="#3F3F38"/>
</svg>
